<svg version="1.1" id="Layer_1" xmlns="http://www.w3.org/2000/svg" xmlns:xlink="http://www.w3.org/1999/xlink" x="0px" y="0px"
	 width="100%" viewBox="0 0 232 233" enable-background="new 0 0 232 233" xml:space="preserve">
<path fill="#0E0E0E" opacity="1.000000" stroke="none" 
	d="
M233.000000,84.000000 
	C233.000000,134.333328 233.000000,184.166672 233.000000,234.000000 
	C155.666672,234.000000 78.333336,234.000000 1.000000,234.000000 
	C1.000000,156.333328 1.000000,78.666664 1.000000,1.000000 
	C78.333336,1.000000 155.666672,1.000000 233.000000,1.000000 
	C233.000000,28.500000 233.000000,56.000000 233.000000,84.000000 
M139.500000,16.999252 
	C97.746696,16.999252 55.993397,16.999252 14.293875,16.999252 
	C14.293875,85.645355 14.293875,153.701721 14.293875,221.706131 
	C82.645302,221.706131 150.701675,221.706131 218.706146,221.706131 
	C218.706146,153.354752 218.706146,85.298386 218.706146,16.999252 
	C192.441544,16.999252 166.470779,16.999252 139.500000,16.999252 
z"/>
<path fill="#E6E6E6" opacity="1.000000" stroke="none" 
	d="
M140.000000,16.999252 
	C166.470779,16.999252 192.441544,16.999252 218.706146,16.999252 
	C218.706146,85.298386 218.706146,153.354752 218.706146,221.706131 
	C150.701675,221.706131 82.645302,221.706131 14.293875,221.706131 
	C14.293875,153.701721 14.293875,85.645355 14.293875,16.999252 
	C55.993397,16.999252 97.746696,16.999252 140.000000,16.999252 
M51.117828,114.131889 
	C50.403687,113.799957 49.689545,113.468025 48.797859,112.427635 
	C45.180073,110.585060 42.413124,111.708710 40.627861,115.745438 
	C38.858330,119.746590 39.878757,122.185760 44.827251,123.993973 
	C46.285366,123.727425 47.743481,123.460876 49.943684,123.156525 
	C53.642380,120.195641 54.134491,117.228516 51.117828,114.131889 
M51.302277,183.087357 
	C47.539936,186.018021 47.852757,191.931366 52.473541,194.312225 
	C52.884415,194.396973 53.295288,194.481720 53.901794,195.215744 
	C57.453510,197.894592 60.128021,196.734970 61.395424,191.147964 
	C61.547150,182.833786 58.476337,180.175415 51.302277,183.087357 
M135.917984,62.991463 
	C136.587234,63.130486 137.256470,63.269508 137.950851,64.050468 
	C138.193024,64.851669 138.435181,65.652870 139.108093,67.879143 
	C139.647186,65.433159 139.864151,64.448700 140.773972,63.307457 
	C141.473160,63.184364 142.172363,63.061275 143.552078,62.855656 
	C143.996170,62.159008 144.440262,61.462360 144.971390,59.970516 
	C145.001068,58.640724 145.030731,57.310936 145.450638,55.591053 
	C144.918442,55.085430 144.386261,54.579811 143.133591,53.919125 
	C140.769241,53.464848 137.185898,51.857033 136.295685,52.797749 
	C134.473267,54.723553 134.096909,58.017773 133.166275,61.451050 
	C133.858154,61.927605 134.550018,62.404160 135.917984,62.991463 
M77.989845,111.167099 
	C80.672874,105.292366 83.063423,99.257446 86.157471,93.607811 
	C87.801407,90.606026 89.509453,87.600060 86.529045,85.329399 
	C83.301460,82.870407 79.783386,83.587730 77.078865,87.279297 
	C69.049545,98.238976 63.968353,110.188370 64.002708,124.815094 
	C63.940079,127.984123 63.727077,131.236343 67.989700,132.815689 
	C69.014603,135.361267 69.559204,138.314133 71.243576,140.300491 
	C72.262787,141.502441 75.890953,142.186310 76.850502,141.361664 
	C78.430962,140.003433 79.458008,137.251175 79.516418,135.054596 
	C79.596191,132.054886 78.549210,129.025192 77.995827,125.077423 
	C77.992081,120.715408 77.988342,116.353386 77.989845,111.167099 
M105.926834,191.991898 
	C108.586548,191.989517 111.582939,192.749100 113.809082,191.765472 
	C115.936020,190.825653 117.684258,188.274582 118.761627,186.029861 
	C119.305229,184.897293 118.383911,181.770599 117.456390,181.443939 
	C113.184067,179.939240 108.707306,178.386703 104.245750,178.193573 
	C97.408447,177.897583 91.374512,175.952789 85.170692,173.181473 
	C73.745354,168.077621 66.907814,158.545395 59.811737,149.126419 
	C58.351540,147.188248 57.719936,144.468033 55.974754,142.948730 
	C54.376457,141.557297 51.789177,141.301880 49.637684,140.545868 
	C48.828148,143.209213 46.605122,146.515457 47.470078,148.417191 
	C50.232639,154.491089 53.304897,160.836304 57.817551,165.598511 
	C63.558125,171.656509 70.613846,176.567337 77.495216,181.415436 
	C83.521805,185.661331 90.339233,188.353500 98.110626,188.757523 
	C98.989212,192.866470 102.247955,191.893875 105.926834,191.991898 
M109.125366,32.736973 
	C111.838005,38.385525 116.986778,35.119923 121.926575,35.989983 
	C126.107422,36.588680 130.335724,36.967388 134.454102,37.855671 
	C137.750259,38.566608 141.022659,39.646812 144.112030,41.003834 
	C150.727036,43.909508 157.588409,46.503452 163.681473,50.297028 
	C176.887131,58.518951 183.531937,72.647476 192.821274,84.386284 
	C194.457840,86.454407 200.341446,88.498566 201.590439,86.495461 
	C202.726669,84.673195 202.640060,81.533226 201.992706,79.291740 
	C201.144516,76.354881 199.247131,73.713074 197.744781,70.975220 
	C196.033981,67.857468 194.748444,64.328117 192.410187,61.771351 
	C188.035553,56.987900 183.340668,52.381817 178.222458,48.421158 
	C170.687805,42.590588 162.961517,36.881451 154.746185,32.101387 
	C149.329147,28.949509 143.043274,26.978720 136.903473,25.463709 
	C129.928040,23.742506 122.682663,23.113092 115.551384,22.030422 
	C115.067055,21.956890 114.430435,21.876530 114.076912,22.114576 
	C111.711349,23.707396 109.116142,25.127913 107.257408,27.198555 
	C106.721893,27.795132 108.361214,30.343977 109.125366,32.736973 
M196.982056,147.330826 
	C194.349350,150.546188 191.384033,153.548584 189.158310,157.024536 
	C185.383026,162.920425 183.035324,170.029129 178.339874,174.965729 
	C171.623932,182.026550 163.964355,188.203674 155.217438,193.186813 
	C142.536667,200.411118 129.060440,203.460724 114.855850,203.868622 
	C109.017593,204.036255 103.099922,201.935104 97.283134,202.214432 
	C91.457458,202.494202 86.423546,200.594086 81.674362,198.246918 
	C77.475433,196.171722 75.288368,198.967255 73.710045,200.892776 
	C71.514458,203.571365 74.133667,206.060791 76.674957,206.987991 
	C83.677872,209.543015 90.684006,212.575653 97.961021,213.794739 
	C114.647507,216.590103 131.193253,214.855682 147.122620,209.070267 
	C153.687912,206.685822 160.354630,204.045883 166.166153,200.275208 
	C171.678879,196.698395 176.276749,191.636185 181.012665,186.959579 
	C185.408463,182.618790 189.720947,178.136826 193.570633,173.317993 
	C196.597076,169.529709 198.656723,164.983871 201.518784,161.045563 
	C204.967636,156.299759 203.275848,149.547607 196.982056,147.330826 
M28.000755,130.339432 
	C27.999416,125.010216 28.034492,119.680695 27.989254,114.351852 
	C27.891331,102.816467 30.197258,91.891052 36.543304,82.110809 
	C41.652107,74.237366 47.086716,66.575531 52.214039,58.713680 
	C53.093388,57.365356 53.915588,55.159698 53.392151,53.937878 
	C52.822639,52.608505 50.612717,51.140678 49.190800,51.210735 
	C46.939816,51.321644 44.120239,52.055584 42.642426,53.587894 
	C36.281521,60.183369 31.251484,67.670006 26.943260,75.902260 
	C22.651073,84.103859 18.362547,92.653648 18.393562,101.450356 
	C18.453833,118.544579 14.997924,135.913834 22.545036,152.801208 
	C25.839170,160.172150 28.842642,167.663483 33.333324,174.322800 
	C34.278435,175.724319 38.620087,175.929276 40.748058,175.073257 
	C42.290607,174.452698 44.019775,170.737411 43.475483,169.155930 
	C41.849060,164.430206 39.590168,159.770660 36.764339,155.642395 
	C31.678493,148.212418 28.902040,140.129547 28.000755,130.339432 
M167.045288,88.531929 
	C168.698685,92.806282 170.387619,97.067307 171.998611,101.357582 
	C176.232773,112.633743 173.207382,124.285019 173.708359,135.754852 
	C173.720551,136.034576 173.414200,136.335861 173.237457,136.615067 
	C167.550278,145.600342 161.760559,154.523987 156.287399,163.637741 
	C155.528976,164.900650 155.697403,167.525925 156.538284,168.784592 
	C158.627579,171.911865 164.233749,172.363480 166.416763,169.064453 
	C171.896332,160.783600 177.105225,152.244507 181.477371,143.344589 
	C183.552078,139.121368 182.758255,133.560577 184.503021,129.089249 
	C188.547058,118.725594 184.829300,108.873817 182.753220,99.173409 
	C181.387451,92.791847 179.355331,86.030891 174.348358,80.824692 
	C170.550217,76.875427 167.775009,71.885475 163.740356,68.251595 
	C162.338348,66.988853 157.289642,67.386147 156.095291,68.832596 
	C154.228622,71.093277 153.750946,74.636269 157.179260,77.512169 
	C160.753372,80.510384 163.611420,84.362190 167.045288,88.531929 
M49.444393,100.192642 
	C51.056911,99.759552 53.391907,99.842758 54.141872,98.793289 
	C56.122196,96.022110 57.541981,92.816971 58.956745,89.681641 
	C62.418137,82.010651 69.009247,77.231857 75.166725,72.106888 
	C78.176270,69.601997 81.609032,67.579361 84.963791,65.523773 
	C87.653725,63.875549 90.360062,61.845829 93.331871,61.149532 
	C99.827995,59.627491 106.505997,58.892876 113.087914,57.714848 
	C114.178642,57.519634 115.480042,56.951569 116.109772,56.120586 
	C116.907364,55.068096 117.739426,53.394329 117.431679,52.306862 
	C116.995193,50.764507 115.602890,48.393654 114.496399,48.323963 
	C108.702225,47.958981 102.634430,47.205654 97.109489,48.499401 
	C90.241722,50.107590 83.682686,53.310852 77.236389,56.347603 
	C72.742844,58.464439 67.241348,60.496532 64.691795,64.260857 
	C59.245773,72.301727 51.258766,78.389412 47.782089,88.113281 
	C46.071609,92.897301 45.566807,96.035820 49.444393,100.192642 
M111.653244,167.994797 
	C118.794113,166.499649 126.063393,165.427444 133.017242,163.316284 
	C136.114899,162.375854 138.297501,158.669983 141.381302,157.388229 
	C150.196289,153.724335 153.285690,145.449142 157.543335,138.201111 
	C159.359406,135.109543 157.823090,132.080292 154.355148,130.540436 
	C151.076309,129.084549 149.485535,131.194580 148.005203,133.597031 
	C142.827988,141.999146 137.259155,149.521194 126.869690,152.661331 
	C117.914810,155.367859 109.564995,156.051712 100.745880,152.727158 
	C98.617241,151.924728 94.904793,151.997162 93.459587,153.332642 
	C89.140289,157.323929 91.788696,164.590805 97.740509,165.852081 
	C102.040169,166.763245 106.420914,167.291718 111.653244,167.994797 
M130.918610,86.656555 
	C132.612152,87.534767 134.779877,88.013680 135.915207,89.361946 
	C140.278168,94.543167 144.283157,100.024368 148.478668,105.348747 
	C150.259796,107.609108 152.087204,108.871376 155.227936,106.931686 
	C158.348022,105.004768 158.853943,102.329712 157.499268,99.787903 
	C155.174805,95.426437 152.547867,91.063843 149.262222,87.407814 
	C139.913666,77.005394 128.200378,71.671501 113.977173,71.887344 
	C110.070412,71.946625 107.480232,73.643150 107.407471,76.902176 
	C107.334396,80.175598 109.885002,81.767143 113.748901,82.203079 
	C119.334351,82.833275 124.766731,84.820076 130.918610,86.656555 
M73.588959,39.518284 
	C74.489418,40.234329 75.316307,41.412384 76.305710,41.569950 
	C78.346024,41.894878 80.753143,42.315426 82.506897,41.548161 
	C86.312263,39.883308 85.860458,36.011105 85.070709,32.945667 
	C84.679558,31.427368 82.328255,29.878614 80.563461,29.354115 
	C76.006485,27.999769 71.307297,32.712467 73.588959,39.518284 
M126.328468,126.814728 
	C127.728783,126.538300 129.145691,126.326675 130.526184,125.972862 
	C134.157745,125.042160 136.154510,122.274605 134.772186,119.093178 
	C133.791275,116.835594 130.400467,113.897003 128.513412,114.174423 
	C125.818451,114.570625 122.483521,117.149902 121.308357,119.674828 
	C119.875267,122.753891 121.991188,125.624184 126.328468,126.814728 
M205.103226,112.716995 
	C201.937912,109.914085 199.771561,113.202171 197.803741,114.475464 
	C196.643082,115.226479 195.948456,118.849205 196.746567,120.010391 
	C198.226624,122.163734 201.048691,124.869606 203.137085,124.730019 
	C205.387756,124.579582 208.443695,121.772461 209.227890,119.470222 
	C209.765594,117.891541 207.022156,115.195244 205.103226,112.716995 
M136.999161,173.574188 
	C134.410782,176.633469 133.569534,180.322083 137.235901,182.417786 
	C139.268433,183.579590 143.182907,182.900757 145.539810,181.680984 
	C148.580612,180.107269 148.785049,176.732346 146.427307,174.094833 
	C143.945648,171.318710 140.955215,169.585739 136.999161,173.574188 
M109.807884,100.241638 
	C105.277679,99.258339 102.367828,102.134941 102.399368,105.646675 
	C102.420280,107.975563 105.627151,111.277573 108.125610,112.200203 
	C109.583549,112.738594 113.376389,109.921410 114.479164,107.772522 
	C116.218773,104.382683 114.319466,101.552414 109.807884,100.241638 
M109.048447,137.090866 
	C112.240547,135.151688 112.944412,132.089371 111.423485,129.133774 
	C110.375359,127.096977 108.193474,124.932190 106.113518,124.396645 
	C104.803329,124.059303 101.870445,126.264313 101.177483,127.950302 
	C98.400124,134.707672 100.430733,137.169937 109.048447,137.090866 
z"/>
<path fill="#DADEFD" opacity="1.000000" stroke="none" 
	d="
M197.346405,147.237183 
	C203.275848,149.547607 204.967636,156.299759 201.518784,161.045563 
	C198.656723,164.983871 196.597076,169.529709 193.570633,173.317993 
	C189.720947,178.136826 185.408463,182.618790 181.012665,186.959579 
	C176.276749,191.636185 171.678879,196.698395 166.166153,200.275208 
	C160.354630,204.045883 153.687912,206.685822 147.122620,209.070267 
	C131.193253,214.855682 114.647507,216.590103 97.961021,213.794739 
	C90.684006,212.575653 83.677872,209.543015 76.674957,206.987991 
	C74.133667,206.060791 71.514458,203.571365 73.710045,200.892776 
	C75.288368,198.967255 77.475433,196.171722 81.674362,198.246918 
	C86.423546,200.594086 91.457458,202.494202 97.283134,202.214432 
	C103.099922,201.935104 109.017593,204.036255 114.855850,203.868622 
	C129.060440,203.460724 142.536667,200.411118 155.217438,193.186813 
	C163.964355,188.203674 171.623932,182.026550 178.339874,174.965729 
	C183.035324,170.029129 185.383026,162.920425 189.158310,157.024536 
	C191.384033,153.548584 194.349350,150.546188 197.346405,147.237183 
z"/>
<path fill="#DADEFD" opacity="1.000000" stroke="none" 
	d="
M28.001392,130.811310 
	C28.902040,140.129547 31.678493,148.212418 36.764339,155.642395 
	C39.590168,159.770660 41.849060,164.430206 43.475483,169.155930 
	C44.019775,170.737411 42.290607,174.452698 40.748058,175.073257 
	C38.620087,175.929276 34.278435,175.724319 33.333324,174.322800 
	C28.842642,167.663483 25.839170,160.172150 22.545036,152.801208 
	C14.997924,135.913834 18.453833,118.544579 18.393562,101.450356 
	C18.362547,92.653648 22.651073,84.103859 26.943260,75.902260 
	C31.251484,67.670006 36.281521,60.183369 42.642426,53.587894 
	C44.120239,52.055584 46.939816,51.321644 49.190800,51.210735 
	C50.612717,51.140678 52.822639,52.608505 53.392151,53.937878 
	C53.915588,55.159698 53.093388,57.365356 52.214039,58.713680 
	C47.086716,66.575531 41.652107,74.237366 36.543304,82.110809 
	C30.197258,91.891052 27.891331,102.816467 27.989254,114.351852 
	C28.034492,119.680695 27.999416,125.010216 28.001392,130.811310 
z"/>
<path fill="#DADEFD" opacity="1.000000" stroke="none" 
	d="
M109.003426,31.997757 
	C108.361214,30.343977 106.721893,27.795132 107.257408,27.198555 
	C109.116142,25.127913 111.711349,23.707396 114.076912,22.114576 
	C114.430435,21.876530 115.067055,21.956890 115.551384,22.030422 
	C122.682663,23.113092 129.928040,23.742506 136.903473,25.463709 
	C143.043274,26.978720 149.329147,28.949509 154.746185,32.101387 
	C162.961517,36.881451 170.687805,42.590588 178.222458,48.421158 
	C183.340668,52.381817 188.035553,56.987900 192.410187,61.771351 
	C194.748444,64.328117 196.033981,67.857468 197.744781,70.975220 
	C199.247131,73.713074 201.144516,76.354881 201.992706,79.291740 
	C202.640060,81.533226 202.726669,84.673195 201.590439,86.495461 
	C200.341446,88.498566 194.457840,86.454407 192.821274,84.386284 
	C183.531937,72.647476 176.887131,58.518951 163.681473,50.297028 
	C157.588409,46.503452 150.727036,43.909508 144.112030,41.003834 
	C141.022659,39.646812 137.750259,38.566608 134.454102,37.855671 
	C130.335724,36.967388 126.107422,36.588680 121.402069,35.619770 
	C118.162811,29.625666 113.013519,32.891621 109.003426,31.997757 
z"/>
<path fill="#DADEFD" opacity="1.000000" stroke="none" 
	d="
M166.913910,88.186363 
	C163.611420,84.362190 160.753372,80.510384 157.179260,77.512169 
	C153.750946,74.636269 154.228622,71.093277 156.095291,68.832596 
	C157.289642,67.386147 162.338348,66.988853 163.740356,68.251595 
	C167.775009,71.885475 170.550217,76.875427 174.348358,80.824692 
	C179.355331,86.030891 181.387451,92.791847 182.753220,99.173409 
	C184.829300,108.873817 188.547058,118.725594 184.503021,129.089249 
	C182.758255,133.560577 183.552078,139.121368 181.477371,143.344589 
	C177.105225,152.244507 171.896332,160.783600 166.416763,169.064453 
	C164.233749,172.363480 158.627579,171.911865 156.538284,168.784592 
	C155.697403,167.525925 155.528976,164.900650 156.287399,163.637741 
	C161.760559,154.523987 167.550278,145.600342 173.237457,136.615067 
	C173.414200,136.335861 173.720551,136.034576 173.708359,135.754852 
	C173.207382,124.285019 176.232773,112.633743 171.998611,101.357582 
	C170.387619,97.067307 168.698685,92.806282 166.913910,88.186363 
z"/>
<path fill="#DADEFD" opacity="1.000000" stroke="none" 
	d="
M49.246033,99.869186 
	C45.566807,96.035820 46.071609,92.897301 47.782089,88.113281 
	C51.258766,78.389412 59.245773,72.301727 64.691795,64.260857 
	C67.241348,60.496532 72.742844,58.464439 77.236389,56.347603 
	C83.682686,53.310852 90.241722,50.107590 97.109489,48.499401 
	C102.634430,47.205654 108.702225,47.958981 114.496399,48.323963 
	C115.602890,48.393654 116.995193,50.764507 117.431679,52.306862 
	C117.739426,53.394329 116.907364,55.068096 116.109772,56.120586 
	C115.480042,56.951569 114.178642,57.519634 113.087914,57.714848 
	C106.505997,58.892876 99.827995,59.627491 93.331871,61.149532 
	C90.360062,61.845829 87.653725,63.875549 84.963791,65.523773 
	C81.609032,67.579361 78.176270,69.601997 75.166725,72.106888 
	C69.009247,77.231857 62.418137,82.010651 58.956745,89.681641 
	C57.541981,92.816971 56.122196,96.022110 54.141872,98.793289 
	C53.391907,99.842758 51.056911,99.759552 49.246033,99.869186 
z"/>
<path fill="#DADEFD" opacity="1.000000" stroke="none" 
	d="
M97.984627,188.015091 
	C90.339233,188.353500 83.521805,185.661331 77.495216,181.415436 
	C70.613846,176.567337 63.558125,171.656509 57.817551,165.598511 
	C53.304897,160.836304 50.232639,154.491089 47.470078,148.417191 
	C46.605122,146.515457 48.828148,143.209213 49.637688,140.545868 
	C51.789177,141.301880 54.376457,141.557297 55.974754,142.948730 
	C57.719936,144.468033 58.351540,147.188248 59.811737,149.126419 
	C66.907814,158.545395 73.745354,168.077621 85.170692,173.181473 
	C91.374512,175.952789 97.408447,177.897583 104.245750,178.193573 
	C108.707306,178.386703 113.184067,179.939240 117.456390,181.443939 
	C118.383911,181.770599 119.305229,184.897293 118.761627,186.029861 
	C117.684258,188.274582 115.936020,190.825653 113.809082,191.765472 
	C111.582939,192.749100 108.586548,191.989517 105.405746,191.630737 
	C103.740425,187.734314 100.834373,187.934387 97.984627,188.015091 
z"/>
<path fill="#DADEFD" opacity="1.000000" stroke="none" 
	d="
M111.209366,167.992828 
	C106.420914,167.291718 102.040169,166.763245 97.740509,165.852081 
	C91.788696,164.590805 89.140289,157.323929 93.459587,153.332642 
	C94.904793,151.997162 98.617241,151.924728 100.745880,152.727158 
	C109.564995,156.051712 117.914810,155.367859 126.869690,152.661331 
	C137.259155,149.521194 142.827988,141.999146 148.005203,133.597031 
	C149.485535,131.194580 151.076309,129.084549 154.355148,130.540436 
	C157.823090,132.080292 159.359406,135.109543 157.543335,138.201111 
	C153.285690,145.449142 150.196289,153.724335 141.381302,157.388229 
	C138.297501,158.669983 136.114899,162.375854 133.017242,163.316284 
	C126.063393,165.427444 118.794113,166.499649 111.209366,167.992828 
z"/>
<path fill="#DADEFD" opacity="1.000000" stroke="none" 
	d="
M77.985260,126.008362 
	C78.549210,129.025192 79.596191,132.054886 79.516418,135.054596 
	C79.458008,137.251175 78.430962,140.003433 76.850502,141.361664 
	C75.890953,142.186310 72.262787,141.502441 71.243576,140.300491 
	C69.559204,138.314133 69.014603,135.361267 67.992599,132.003265 
	C68.051506,128.025681 68.287247,124.761032 64.011925,123.992966 
	C63.968353,110.188370 69.049545,98.238976 77.078865,87.279297 
	C79.783386,83.587730 83.301460,82.870407 86.529045,85.329399 
	C89.509453,87.600060 87.801407,90.606026 86.157471,93.607811 
	C83.063423,99.257446 80.672874,105.292366 77.606895,111.656082 
	C73.650063,115.849159 74.076256,123.609940 77.985260,126.008362 
z"/>
<path fill="#DADEFD" opacity="1.000000" stroke="none" 
	d="
M130.591522,86.442322 
	C124.766731,84.820076 119.334351,82.833275 113.748901,82.203079 
	C109.885002,81.767143 107.334396,80.175598 107.407471,76.902176 
	C107.480232,73.643150 110.070412,71.946625 113.977173,71.887344 
	C128.200378,71.671501 139.913666,77.005394 149.262222,87.407814 
	C152.547867,91.063843 155.174805,95.426437 157.499268,99.787903 
	C158.853943,102.329712 158.348022,105.004768 155.227936,106.931686 
	C152.087204,108.871376 150.259796,107.609108 148.478668,105.348747 
	C144.283157,100.024368 140.278168,94.543167 135.915207,89.361946 
	C134.779877,88.013680 132.612152,87.534767 130.591522,86.442322 
z"/>
<path fill="#F4BA1E" opacity="1.000000" stroke="none" 
	d="
M73.459183,39.149353 
	C71.307297,32.712467 76.006485,27.999769 80.563461,29.354115 
	C82.328255,29.878614 84.679558,31.427368 85.070709,32.945667 
	C85.860458,36.011105 86.312263,39.883308 82.506897,41.548161 
	C80.753143,42.315426 78.346024,41.894878 76.305710,41.569950 
	C75.316307,41.412384 74.489418,40.234329 73.459183,39.149353 
z"/>
<path fill="#F5B815" opacity="1.000000" stroke="none" 
	d="
M126.062927,126.567184 
	C121.991188,125.624184 119.875267,122.753891 121.308357,119.674828 
	C122.483521,117.149902 125.818451,114.570625 128.513412,114.174423 
	C130.400467,113.897003 133.791275,116.835594 134.772186,119.093178 
	C136.154510,122.274605 134.157745,125.042160 130.526184,125.972862 
	C129.145691,126.326675 127.728783,126.538300 126.062927,126.567184 
z"/>
<path fill="#F4B91A" opacity="1.000000" stroke="none" 
	d="
M205.424347,112.857773 
	C207.022156,115.195244 209.765594,117.891541 209.227890,119.470222 
	C208.443695,121.772461 205.387756,124.579582 203.137085,124.730019 
	C201.048691,124.869606 198.226624,122.163734 196.746567,120.010391 
	C195.948456,118.849205 196.643082,115.226479 197.803741,114.475464 
	C199.771561,113.202171 201.937912,109.914085 205.424347,112.857773 
z"/>
<path fill="#F4B818" opacity="1.000000" stroke="none" 
	d="
M137.276260,173.308914 
	C140.955215,169.585739 143.945648,171.318710 146.427307,174.094833 
	C148.785049,176.732346 148.580612,180.107269 145.539810,181.680984 
	C143.182907,182.900757 139.268433,183.579590 137.235901,182.417786 
	C133.569534,180.322083 134.410782,176.633469 137.276260,173.308914 
z"/>
<path fill="#F4B91A" opacity="1.000000" stroke="none" 
	d="
M110.157257,100.332306 
	C114.319466,101.552414 116.218773,104.382683 114.479164,107.772522 
	C113.376389,109.921410 109.583549,112.738594 108.125610,112.200203 
	C105.627151,111.277573 102.420280,107.975563 102.399368,105.646675 
	C102.367828,102.134941 105.277679,99.258339 110.157257,100.332306 
z"/>
<path fill="#F6B50B" opacity="1.000000" stroke="none" 
	d="
M108.619019,137.179718 
	C100.430733,137.169937 98.400124,134.707672 101.177483,127.950302 
	C101.870445,126.264313 104.803329,124.059303 106.113518,124.396645 
	C108.193474,124.932190 110.375359,127.096977 111.423485,129.133774 
	C112.944412,132.089371 112.240547,135.151688 108.619019,137.179718 
z"/>
<path fill="#F5B814" opacity="1.000000" stroke="none" 
	d="
M145.060410,55.981148 
	C145.030731,57.310936 145.001068,58.640724 144.580170,60.398285 
	C143.749802,61.530094 143.310669,62.234135 142.871552,62.938179 
	C142.172363,63.061275 141.473160,63.184364 140.073181,63.300537 
	C138.890167,63.331921 138.407944,63.370224 137.925720,63.408531 
	C137.256470,63.269508 136.587234,63.130486 135.551636,62.586205 
	C134.498566,61.703465 133.811829,61.225986 133.125107,60.748512 
	C134.096909,58.017773 134.473267,54.723553 136.295685,52.797749 
	C137.185898,51.857033 140.769241,53.464848 143.560333,54.297112 
	C144.344864,55.110447 144.702637,55.545799 145.060410,55.981148 
z"/>
<path fill="#F5B60E" opacity="1.000000" stroke="none" 
	d="
M53.706161,194.566467 
	C53.295288,194.481720 52.884415,194.396973 52.180595,193.796143 
	C51.963528,189.891464 52.039410,186.502838 52.115288,183.114227 
	C58.476337,180.175415 61.547150,182.833786 60.926712,191.667328 
	C58.207390,192.979950 55.956776,193.773209 53.706161,194.566467 
z"/>
<path fill="#F6B405" opacity="1.000000" stroke="none" 
	d="
M48.975407,113.136093 
	C49.689545,113.468025 50.403687,113.799957 51.117287,114.842239 
	C50.478359,118.099831 49.839973,120.647072 49.201591,123.194321 
	C47.743481,123.460876 46.285366,123.727425 44.355644,123.597725 
	C40.632244,117.339996 41.143810,114.933014 48.975407,113.136093 
z"/>
<path fill="#EECA66" opacity="1.000000" stroke="none" 
	d="
M48.886635,112.781860 
	C41.143810,114.933014 40.632244,117.339996 43.967358,123.564301 
	C39.878757,122.185760 38.858330,119.746590 40.627861,115.745438 
	C42.413124,111.708710 45.180073,110.585060 48.886635,112.781860 
z"/>
<path fill="#DEE1F6" opacity="1.000000" stroke="none" 
	d="
M109.064392,32.367363 
	C113.013519,32.891621 118.162811,29.625666 120.942253,35.616814 
	C116.986778,35.119923 111.838005,38.385525 109.064392,32.367363 
z"/>
<path fill="#DEE1F4" opacity="1.000000" stroke="none" 
	d="
M77.990540,125.542892 
	C74.076256,123.609940 73.650063,115.849159 77.604271,112.068214 
	C77.988342,116.353386 77.992081,120.715408 77.990540,125.542892 
z"/>
<path fill="#ECD287" opacity="1.000000" stroke="none" 
	d="
M51.708786,183.100800 
	C52.039410,186.502838 51.963528,189.891464 51.885986,193.684998 
	C47.852757,191.931366 47.539936,186.018021 51.708786,183.100800 
z"/>
<path fill="#DEE1F4" opacity="1.000000" stroke="none" 
	d="
M64.007317,124.404030 
	C68.287247,124.761032 68.051506,128.025681 67.990593,131.602829 
	C63.727077,131.236343 63.940079,127.984123 64.007317,124.404030 
z"/>
<path fill="#DEE1F4" opacity="1.000000" stroke="none" 
	d="
M98.047623,188.386307 
	C100.834373,187.934387 103.740425,187.734314 104.945908,191.628693 
	C102.247955,191.893875 98.989212,192.866470 98.047623,188.386307 
z"/>
<path fill="#ECD287" opacity="1.000000" stroke="none" 
	d="
M53.803978,194.891113 
	C55.956776,193.773209 58.207390,192.979950 60.845226,192.112000 
	C60.128021,196.734970 57.453510,197.894592 53.803978,194.891113 
z"/>
<path fill="#EECA66" opacity="1.000000" stroke="none" 
	d="
M49.572639,123.175423 
	C49.839973,120.647072 50.478359,118.099831 51.230858,115.130104 
	C54.134491,117.228516 53.642380,120.195641 49.572639,123.175423 
z"/>
<path fill="#E8DFC4" opacity="1.000000" stroke="none" 
	d="
M137.938293,63.729500 
	C138.407944,63.370224 138.890167,63.331921 139.726761,63.378929 
	C139.864151,64.448700 139.647186,65.433159 139.108093,67.879143 
	C138.435181,65.652870 138.193024,64.851669 137.938293,63.729500 
z"/>
<path fill="#E8DFC4" opacity="1.000000" stroke="none" 
	d="
M143.211823,62.896919 
	C143.310669,62.234135 143.749802,61.530094 144.536652,60.795883 
	C144.440262,61.462360 143.996170,62.159008 143.211823,62.896919 
z"/>
<path fill="#E8DFC4" opacity="1.000000" stroke="none" 
	d="
M133.145691,61.099777 
	C133.811829,61.225986 134.498566,61.703465 135.213593,62.530827 
	C134.550018,62.404160 133.858154,61.927605 133.145691,61.099777 
z"/>
<path fill="#E8DFC4" opacity="1.000000" stroke="none" 
	d="
M145.255524,55.786102 
	C144.702637,55.545799 144.344864,55.110447 143.920578,54.374645 
	C144.386261,54.579811 144.918442,55.085430 145.255524,55.786102 
z"/>
</svg>