<svg version="1.1" id="Layer_1" xmlns="http://www.w3.org/2000/svg" xmlns:xlink="http://www.w3.org/1999/xlink" x="0px" y="0px"
	 width="100%" viewBox="0 0 200 200" enable-background="new 0 0 200 200" xml:space="preserve">
<path fill="#031724" opacity="1.000000" stroke="none" 
	d="
M140.000000,201.000000 
	C93.333336,201.000000 47.166672,201.000000 1.000006,201.000000 
	C1.000004,134.333344 1.000004,67.666679 1.000002,1.000015 
	C67.666656,1.000010 134.333313,1.000010 200.999969,1.000005 
	C200.999985,67.666649 200.999985,134.333298 201.000000,200.999969 
	C180.833328,201.000000 160.666672,201.000000 140.000000,201.000000 
M130.746048,71.331139 
	C134.645401,67.112457 138.544739,62.893780 142.588013,58.519390 
	C133.555573,49.134609 122.850906,43.966217 110.263100,43.110210 
	C89.960663,41.729584 71.531860,52.830200 62.278435,71.640923 
	C53.327194,89.837349 56.100574,113.855980 68.893982,128.323837 
	C69.698990,129.234192 70.965157,129.736771 72.001999,130.780457 
	C71.995918,131.015244 71.997673,131.249954 71.575981,131.016479 
	C67.356285,135.165649 63.136593,139.314819 58.945248,143.436127 
	C76.275909,163.496292 107.781265,164.407028 128.171036,145.788773 
	C148.778458,126.971748 149.997818,91.918594 130.746048,71.331139 
z"/>
<path fill="#031926" opacity="1.000000" stroke="none" 
	d="
M72.007271,131.484619 
	C71.997673,131.249954 71.995918,131.015244 72.159607,130.284912 
	C76.266014,126.258667 80.214813,122.727966 84.114578,119.241104 
	C82.592415,117.024368 81.856323,115.936348 81.104218,114.859512 
	C70.685211,99.942070 73.190308,80.228165 86.996689,68.505737 
	C99.913078,57.538967 121.460724,59.288319 129.758087,72.117554 
	C125.467323,76.024773 121.551254,79.822189 117.742874,83.515190 
	C130.536880,102.235939 129.274124,121.419037 114.919510,133.427628 
	C101.904854,144.315262 84.009956,143.505005 72.007271,131.484619 
z"/>
<path fill="#00DDC8" opacity="1.000000" stroke="none" 
	d="
M130.132767,72.007751 
	C121.460724,59.288319 99.913078,57.538967 86.996689,68.505737 
	C73.190308,80.228165 70.685211,99.942070 81.104218,114.859512 
	C81.856323,115.936348 82.592415,117.024368 84.114578,119.241104 
	C80.214813,122.727966 76.266014,126.258667 72.166992,130.109222 
	C70.965157,129.736771 69.698990,129.234192 68.893982,128.323837 
	C56.100574,113.855980 53.327194,89.837349 62.278435,71.640923 
	C71.531860,52.830200 89.960663,41.729584 110.263100,43.110210 
	C122.850906,43.966217 133.555573,49.134609 142.588013,58.519390 
	C138.544739,62.893780 134.645401,67.112457 130.640381,71.686172 
	C130.534714,72.041214 130.132767,72.007751 130.132767,72.007751 
z"/>
<path fill="#00DEC8" opacity="1.000000" stroke="none" 
	d="
M129.758087,72.117554 
	C130.132767,72.007751 130.534714,72.041214 130.635315,72.048172 
	C149.997818,91.918594 148.778458,126.971748 128.171036,145.788773 
	C107.781265,164.407028 76.275909,163.496292 58.945248,143.436127 
	C63.136593,139.314819 67.356285,135.165649 71.791626,131.250549 
	C84.009956,143.505005 101.904854,144.315262 114.919510,133.427628 
	C129.274124,121.419037 130.536880,102.235939 117.742874,83.515190 
	C121.551254,79.822189 125.467323,76.024773 129.758087,72.117554 
z"/>
</svg>