<svg version="1.1" id="Layer_1" xmlns="http://www.w3.org/2000/svg" xmlns:xlink="http://www.w3.org/1999/xlink" x="0px" y="0px"
	 width="100%" viewBox="0 0 800 600" enable-background="new 0 0 800 600" xml:space="preserve">
<path fill="#010101" opacity="1.000000" stroke="none" 
	d="
M587.000000,601.000000 
	C391.333344,601.000000 196.166672,601.000000 1.000000,601.000000 
	C1.000000,401.000000 1.000000,201.000000 1.000000,1.000000 
	C267.666656,1.000000 534.333313,1.000000 801.000000,1.000000 
	C801.000000,201.000000 801.000000,401.000000 801.000000,601.000000 
	C729.833313,601.000000 658.666687,601.000000 587.000000,601.000000 
M528.852722,89.852806 
	C528.165100,88.524689 527.559509,87.145950 526.777039,85.876289 
	C519.281860,73.714554 503.564453,69.448990 490.933960,76.120087 
	C478.497375,82.688744 473.124115,97.821953 478.628082,110.778252 
	C484.289459,124.105125 499.521606,130.701340 513.081116,125.698006 
	C527.168396,120.499931 533.937927,105.652496 528.852722,89.852806 
M515.177856,501.346741 
	C526.020874,510.317474 538.603760,511.277374 549.211853,503.943115 
	C559.096924,497.108704 563.271301,484.413208 559.377136,473.027771 
	C555.824280,462.640350 546.618103,455.491364 535.974182,454.854492 
	C524.340393,454.158386 514.311951,459.841766 509.424683,469.900665 
	C504.435944,480.168488 506.332062,491.360565 515.177856,501.346741 
M176.159531,341.527252 
	C181.175507,342.387085 186.235397,344.168976 191.199142,343.932434 
	C205.627960,343.244965 216.549103,329.177216 214.971634,314.227264 
	C213.432999,299.645386 199.160660,288.399750 184.984344,290.599335 
	C172.538559,292.530365 164.099945,300.491119 161.614929,312.645447 
	C159.345200,323.746765 164.608109,334.544159 176.159531,341.527252 
M267.999512,283.288849 
	C268.214417,282.661102 268.471558,282.044373 268.637909,281.403992 
	C271.236572,271.398041 267.726715,261.592896 259.531128,255.929459 
	C251.672180,250.498642 241.248138,250.507477 233.346008,255.951614 
	C225.283722,261.506104 221.660339,271.287231 224.101822,280.905945 
	C226.341629,289.730103 234.382187,296.763855 243.558136,297.925964 
	C253.654968,299.204712 262.448120,294.143341 267.999512,283.288849 
M521.396545,150.937561 
	C520.172241,150.430527 518.981018,149.813675 517.718445,149.433884 
	C507.856476,146.467377 497.173889,150.474487 491.647675,159.167267 
	C486.073242,167.935867 487.008636,179.132294 493.960938,186.855316 
	C500.856995,194.515930 512.090332,196.749283 521.271423,192.091141 
	C528.975220,188.182480 533.395142,181.787552 533.978699,173.176498 
	C534.634949,163.491959 530.359070,156.215805 521.396545,150.937561 
M566.466431,157.778244 
	C552.724182,161.412186 545.345764,174.374542 549.660095,187.303497 
	C553.504456,198.823990 565.428528,205.389786 576.980225,202.346848 
	C589.222412,199.122009 596.432617,187.579605 593.927551,175.216675 
	C591.519531,163.332748 580.272217,155.869049 566.466431,157.778244 
M224.335251,195.288528 
	C222.690872,195.480606 221.028076,195.574921 219.405060,195.880508 
	C208.120743,198.005295 200.430649,207.493103 200.697586,218.899734 
	C200.954315,229.869720 208.944260,239.286484 219.441605,240.991043 
	C231.046036,242.875366 241.748260,236.581680 245.337646,225.569275 
	C249.976440,211.337234 240.512512,196.722763 224.335251,195.288528 
M430.504333,522.995850 
	C432.144501,522.783386 433.819000,522.715515 435.419373,522.335510 
	C447.955902,519.359009 455.634918,507.216187 452.707886,495.085785 
	C449.690552,482.581177 437.258942,475.053467 424.740265,478.150543 
	C413.975708,480.813690 407.058105,490.915894 407.937134,502.689087 
	C408.743713,513.491699 417.449982,521.640930 430.504333,522.995850 
M447.567657,462.715820 
	C454.042847,474.216827 466.006836,478.656860 477.130188,473.686890 
	C487.750031,468.941925 493.049988,456.759949 489.267883,445.788269 
	C485.177521,433.922394 472.571960,427.689484 460.771545,431.698059 
	C448.222992,435.960724 442.585114,448.577728 447.567657,462.715820 
M497.921814,213.198334 
	C496.693451,213.700790 495.408356,214.097824 494.245941,214.722900 
	C487.016083,218.610809 483.094971,224.735321 483.215759,232.897827 
	C483.339600,241.266190 487.488464,247.501923 495.150452,250.978500 
	C502.657410,254.384750 509.803650,253.190674 516.176880,248.085434 
	C523.060669,242.571167 525.314941,232.655960 521.762878,224.549805 
	C517.910583,215.758804 509.574860,211.602386 497.921814,213.198334 
M310.442932,269.146576 
	C320.636292,263.958496 324.924133,254.314575 321.439667,244.413498 
	C318.136566,235.027740 308.300568,229.441635 298.877960,231.600098 
	C287.873016,234.121017 281.077362,244.674683 283.483582,255.196686 
	C286.130615,266.771454 298.682861,273.872620 310.442932,269.146576 
M415.188660,396.304047 
	C413.779816,396.792389 412.324951,397.178192 410.969818,397.786194 
	C403.673584,401.060028 398.816681,408.896729 399.285431,416.530853 
	C399.805176,424.995422 405.399353,432.140717 413.426361,434.592743 
	C421.189423,436.964142 429.988525,434.185760 434.783997,427.575043 
	C439.591644,420.947540 440.376038,413.748352 436.429962,406.493439 
	C432.071655,398.480743 425.016388,395.279785 415.188660,396.304047 
M631.396851,264.573822 
	C634.586426,248.907913 621.315613,236.089890 606.640259,240.661896 
	C597.501526,243.509018 591.915466,251.785904 592.734009,261.266815 
	C593.514343,270.305664 600.344177,277.767578 608.994812,279.032532 
	C619.164001,280.519531 627.260559,275.530334 631.396851,264.573822 
M299.078766,198.498917 
	C299.148834,196.511887 299.406433,194.510727 299.257996,192.540161 
	C298.408051,181.259094 287.923035,173.297119 276.394745,175.092896 
	C265.568268,176.779327 257.987762,188.152069 260.594177,198.797913 
	C262.747101,207.591568 269.970001,213.751160 278.567291,214.125061 
	C288.366760,214.551270 295.265778,209.531799 299.078766,198.498917 
M558.040710,259.700684 
	C566.138916,261.753693 573.302124,260.189758 578.866760,253.743927 
	C583.824768,248.000763 584.986267,241.320160 582.420959,234.153915 
	C579.480042,225.938828 570.834412,220.419785 562.509460,221.270355 
	C553.086792,222.233063 546.079163,228.967804 544.531616,238.548172 
	C543.141235,247.155777 548.179565,255.344879 558.040710,259.700684 
M370.597351,480.028168 
	C380.370667,485.568787 390.731567,483.964874 397.058258,475.931824 
	C402.930725,468.475494 402.603149,457.708405 396.290009,450.677246 
	C388.695343,442.218933 375.830109,441.831787 367.791351,449.819702 
	C359.246643,458.310394 360.183289,470.981720 370.597351,480.028168 
M346.588593,477.542786 
	C331.508850,473.581451 318.162445,487.300446 322.740875,502.248932 
	C325.471100,511.163208 333.731750,516.671082 342.979065,516.002930 
	C351.923920,515.356628 359.455353,508.279968 360.867828,499.194458 
	C362.288391,490.056610 356.964996,481.643158 346.588593,477.542786 
M282.384247,159.044556 
	C290.037018,152.801468 292.565826,145.299911 289.803040,137.037170 
	C287.363037,129.739777 280.200592,124.395905 272.458405,124.096428 
	C264.420502,123.785507 257.035736,128.576889 253.987244,136.080887 
	C251.047348,143.317581 252.928085,151.827652 258.649902,157.178589 
	C264.880188,163.005051 273.172668,163.819595 282.384247,159.044556 
M608.030579,318.376831 
	C612.785400,310.414093 612.190002,302.352509 606.415344,296.506805 
	C601.083313,291.109192 592.837158,289.854706 586.280823,293.588287 
	C580.258911,297.017517 577.200562,302.372314 577.588928,309.224091 
	C578.000671,316.488403 581.774597,321.779907 588.763489,324.189911 
	C596.108459,326.722717 602.448486,324.809204 608.030579,318.376831 
M316.337982,118.622528 
	C309.084259,122.043869 305.545807,127.744102 306.041229,135.770218 
	C306.442566,142.271530 311.058533,147.957306 317.453094,150.118622 
	C323.998810,152.331039 331.006683,150.420242 335.553558,145.183273 
	C340.245605,139.779129 340.957245,131.883118 337.312561,125.666771 
	C333.234253,118.710831 326.142395,116.127983 316.337982,118.622528 
M472.536255,271.141937 
	C466.491669,280.513458 468.249146,290.616058 476.853210,295.957031 
	C484.883148,300.941620 495.534180,298.299347 500.325500,290.134155 
	C504.534912,282.960571 502.858551,273.780579 496.378418,268.518890 
	C489.406677,262.858002 480.264160,263.663849 472.536255,271.141937 
M337.517181,238.309860 
	C335.908173,250.572357 345.087494,260.531311 356.218567,258.599670 
	C364.899414,257.093201 371.032532,250.042145 370.899475,241.721497 
	C370.772003,233.751572 364.761749,226.702927 356.845306,225.239212 
	C348.527283,223.701248 340.894562,228.632538 337.517181,238.309860 
M314.284149,183.874741 
	C314.342377,194.974091 321.232239,202.360214 331.418427,202.243225 
	C340.937317,202.133865 348.372803,194.325607 348.003754,184.826340 
	C347.689606,176.740204 341.333893,169.760223 333.521667,168.921753 
	C323.846649,167.883362 317.118286,172.871613 314.284149,183.874741 
M549.713013,273.470154 
	C539.100769,272.205383 531.452698,277.518829 529.671143,287.394073 
	C528.161194,295.764038 533.852112,304.227661 542.264526,306.123352 
	C551.368591,308.174927 559.753052,303.190155 562.299622,294.212036 
	C564.833008,285.280426 560.074463,277.049896 549.713013,273.470154 
M374.213226,363.680481 
	C368.947052,369.109283 367.417114,375.445099 370.366364,382.417633 
	C373.056885,388.778534 378.202942,392.280945 385.111542,392.519623 
	C391.999603,392.757629 397.295410,389.667694 400.577698,383.540802 
	C404.187195,376.803101 402.453613,368.162354 396.641907,363.144318 
	C390.348511,357.710480 382.525970,357.723846 374.213226,363.680481 
M362.402802,415.279327 
	C356.676697,407.527618 348.972961,405.115906 341.178558,408.635010 
	C334.277924,411.750549 330.151093,419.426056 331.544739,426.543396 
	C332.875549,433.339752 336.791534,438.031219 343.429352,439.901428 
	C350.019073,441.758087 356.038818,440.177917 360.581573,434.904694 
	C365.510040,429.183655 366.159271,422.731995 362.402802,415.279327 
M291.017670,455.675140 
	C291.249298,464.217163 295.254333,470.082550 302.496643,472.486023 
	C309.148315,474.693451 316.453400,472.476257 320.834747,466.920044 
	C325.076996,461.540161 325.500000,453.588074 321.853729,447.763550 
	C318.262268,442.026611 311.359955,438.971710 304.663361,440.155243 
	C297.625671,441.399048 292.859253,446.542419 291.017670,455.675140 
M524.728638,312.768311 
	C518.522400,311.672668 513.537842,313.811676 510.052063,318.906311 
	C506.662964,323.859650 506.593323,329.207245 509.594086,334.423645 
	C512.860229,340.101440 519.418396,342.682922 525.931091,341.043762 
	C531.866577,339.549927 536.370728,333.893951 536.687683,327.536377 
	C537.019409,320.884186 532.838196,315.421204 524.728638,312.768311 
M355.288086,127.916786 
	C351.485016,134.584152 351.596954,140.406113 355.625885,145.487396 
	C359.258026,150.068237 365.324219,152.090836 370.759033,150.533142 
	C376.866730,148.782578 380.949402,143.820648 381.403717,137.595871 
	C381.845886,131.537582 378.664398,125.966072 373.290100,123.387032 
	C367.231140,120.479439 361.393707,121.796982 355.288086,127.916786 
M318.324585,373.760925 
	C313.049011,379.687531 312.075378,386.162567 315.587830,391.961853 
	C318.885162,397.406097 325.550354,400.235596 331.480408,398.557739 
	C337.239471,396.928314 341.060791,393.268494 342.125305,387.262817 
	C343.211273,381.136017 341.289215,375.967407 336.040222,372.513733 
	C330.259308,368.710205 324.430634,369.173523 318.324585,373.760925 
M395.278412,258.285278 
	C403.158905,259.532349 409.944031,255.547592 412.040039,248.441559 
	C414.193909,241.139359 410.688385,233.746353 403.693817,230.839691 
	C396.216583,227.732437 387.792786,231.318329 384.770111,238.895233 
	C381.562103,246.936752 385.525909,254.775299 395.278412,258.285278 
M361.038208,190.077057 
	C363.701874,199.128754 370.968445,203.836151 378.899231,201.647751 
	C386.731384,199.486572 391.197296,191.637833 389.077545,183.759552 
	C387.319580,177.225815 380.563507,172.519180 373.975433,173.238586 
	C365.952606,174.114670 361.007019,180.198090 361.038208,190.077057 
M472.982208,309.650848 
	C467.157440,303.798645 460.847595,302.565186 454.626984,306.062653 
	C449.246643,309.087677 446.204651,315.467957 447.474335,321.218811 
	C448.815430,327.293030 452.522644,331.316345 458.554016,332.700226 
	C464.394135,334.040253 469.481781,332.184509 473.093170,327.377441 
	C477.236603,321.862274 477.148987,316.038696 472.982208,309.650848 
M362.355713,350.253021 
	C370.502594,351.677734 377.101288,347.715393 379.259216,340.102966 
	C381.241211,333.111176 377.569580,325.768219 370.742981,323.071320 
	C363.479309,320.201721 355.065155,323.841309 352.198212,331.092987 
	C349.091797,338.950378 352.829407,346.524719 362.355713,350.253021 
M282.970428,430.789459 
	C293.304138,434.684723 305.105774,425.331390 301.536865,412.991089 
	C299.691742,406.611023 293.932648,402.727386 287.193817,402.945892 
	C280.837250,403.152039 275.465485,407.531586 273.947784,413.745209 
	C272.230896,420.774414 275.082306,426.491455 282.970428,430.789459 
M574.478638,359.268494 
	C581.971802,356.292023 585.848999,350.264496 584.585938,343.555634 
	C583.067261,335.489014 575.874023,330.194824 568.343079,331.600952 
	C560.574341,333.051483 555.200500,340.070862 556.261353,347.382172 
	C557.491272,355.858643 564.600586,360.807922 574.478638,359.268494 
M532.421326,377.752350 
	C538.145935,385.535431 547.508606,386.536804 553.172668,379.971802 
	C557.101501,375.418030 557.265320,368.550049 553.557007,363.856873 
	C549.653137,358.916168 542.844299,357.554688 537.393433,360.624969 
	C531.660645,363.853943 529.709839,369.882324 532.421326,377.752350 
M358.031555,287.515472 
	C347.786804,287.414520 341.308807,295.583588 344.656036,304.382751 
	C346.794220,310.003571 352.062927,313.125916 358.092560,312.345551 
	C363.935944,311.589264 368.423584,306.943207 368.966644,301.087708 
	C369.543365,294.869263 365.689728,289.809631 358.031555,287.515472 
M507.393524,355.741180 
	C508.686554,346.710266 502.253174,339.607147 493.733917,340.659515 
	C487.567413,341.421265 483.073395,346.149200 482.713684,352.253265 
	C482.333435,358.706818 486.245667,363.890198 492.566803,365.307678 
	C499.064240,366.764679 504.321198,363.601868 507.393524,355.741180 
M447.118469,346.239258 
	C447.028564,338.794525 444.093109,334.512238 437.870697,332.748413 
	C432.651733,331.269043 427.002960,333.450134 424.111176,338.159149 
	C421.328674,342.690277 421.341949,347.310760 424.270020,351.728424 
	C427.210876,356.165497 431.535248,357.940338 436.747650,357.110931 
	C442.457672,356.202332 445.746704,352.606415 447.118469,346.239258 
M319.401306,335.869690 
	C310.875977,336.351196 305.212555,342.512970 306.487091,349.920258 
	C307.595764,356.363556 313.196716,361.069489 319.367157,360.742157 
	C325.607330,360.411133 330.720093,355.500275 331.177612,349.398132 
	C331.708954,342.311371 327.802399,337.493195 319.401306,335.869690 
M279.343201,393.153290 
	C287.788574,391.743469 292.659271,384.999084 290.551697,377.633057 
	C288.792969,371.486267 282.810547,367.443298 276.915100,368.417236 
	C270.396820,369.494080 265.802856,374.973114 266.075226,381.345642 
	C266.355591,387.906311 271.102600,392.421875 279.343201,393.153290 
M429.271210,265.444824 
	C434.320404,267.823059 439.508514,267.471985 442.866547,263.254425 
	C445.174866,260.355255 446.605377,255.828171 446.446655,252.113373 
	C446.213654,246.660660 440.992249,242.758194 435.549316,242.272690 
	C430.617767,241.832779 425.182495,245.278381 423.334442,250.016052 
	C421.175079,255.551773 423.000793,260.771484 429.271210,265.444824 
M419.536530,188.844177 
	C410.762909,182.767700 400.161072,186.735840 399.062622,196.507309 
	C398.424469,202.184021 401.662567,207.508041 406.979980,209.525146 
	C412.080444,211.459976 417.935303,209.727158 421.216095,205.311737 
	C424.824280,200.455673 424.443176,195.093979 419.536530,188.844177 
M414.853424,142.854889 
	C411.493408,136.417343 407.657257,134.121964 401.492096,134.860077 
	C396.661102,135.438477 392.634735,139.011261 391.351532,143.858292 
	C390.127533,148.481644 391.957489,153.756134 395.966492,156.645111 
	C400.100098,159.623825 404.602875,160.046555 409.062744,157.578766 
	C414.581055,154.525299 416.121826,149.567337 414.853424,142.854889 
M426.902405,152.202576 
	C421.443726,155.580460 419.176758,159.986725 420.415009,164.811935 
	C421.949432,170.791260 427.811249,174.359070 433.800598,172.959061 
	C439.327545,171.667160 443.134705,165.504471 441.840973,159.943939 
	C440.378479,153.658234 434.633301,150.442154 426.902405,152.202576 
M463.065430,360.284332 
	C456.922241,364.599121 455.291595,370.103363 458.545044,375.542786 
	C461.395050,380.307831 467.360870,382.143372 472.383820,379.800659 
	C477.309418,377.503357 479.751923,371.629639 477.965607,366.377533 
	C476.054047,360.757080 470.393860,358.214233 463.065430,360.284332 
M309.062531,310.724365 
	C306.761169,315.339905 306.984528,319.765533 310.560028,323.589386 
	C313.485962,326.718506 317.231110,327.899384 321.426178,326.514496 
	C326.141998,324.957642 328.858337,321.654327 329.066559,316.614594 
	C329.265778,311.794128 326.947662,308.335114 322.659088,306.334290 
	C317.992676,304.157196 313.883026,305.423615 309.062531,310.724365 
M279.188110,359.382141 
	C284.907928,358.102173 288.249451,355.030396 288.723999,350.043762 
	C289.175262,345.301788 287.122131,341.581757 282.894745,339.360107 
	C278.800537,337.208466 274.742767,337.767029 271.274048,340.730347 
	C267.845886,343.658997 266.479065,347.456848 267.932373,351.925537 
	C269.576324,356.980469 273.187042,359.384369 279.188110,359.382141 
M444.092194,222.966080 
	C449.252777,219.290955 451.077087,215.139343 449.607544,210.414536 
	C447.832733,204.708282 441.872253,201.515381 436.183136,203.223297 
	C430.868805,204.818710 427.677002,210.748871 429.129913,216.327820 
	C430.664948,222.222275 436.487518,225.049911 444.092194,222.966080 
M517.235901,398.053955 
	C521.826416,397.408081 524.870483,394.838196 525.914795,390.368744 
	C526.854126,386.348694 525.670898,382.739746 522.295837,380.213348 
	C518.614868,377.458008 514.618042,377.191925 510.751831,379.817200 
	C507.151398,382.262024 505.380005,385.805389 506.439117,390.108917 
	C507.680817,395.154236 511.053864,397.983124 517.235901,398.053955 
M493.403656,387.975739 
	C485.829559,385.056610 479.487061,393.175964 481.565247,398.933594 
	C483.024200,402.975616 485.746277,405.355499 490.006714,405.504608 
	C494.258850,405.653412 497.569092,403.617981 498.827576,399.541138 
	C500.321655,394.701050 498.773804,390.702728 493.403656,387.975739 
M275.950012,317.557800 
	C273.766846,321.472076 273.618011,325.738373 277.123688,328.399994 
	C279.544708,330.238129 283.756195,331.428009 286.500366,330.625641 
	C288.996674,329.895752 291.442993,326.370422 292.377411,323.566193 
	C293.635193,319.791687 291.439423,316.393524 287.927582,314.483490 
	C283.509644,312.080750 279.609650,313.265259 275.950012,317.557800 
M451.437622,171.442688 
	C445.395935,172.742706 442.006775,176.080154 442.442230,180.802429 
	C442.841553,185.132736 445.054596,188.298904 449.606018,189.189819 
	C454.660156,190.179138 459.215118,187.244736 460.153564,182.521545 
	C461.255981,176.973389 458.529541,173.212662 451.437622,171.442688 
z"/>
<path fill="#FCFCFC" opacity="1.000000" stroke="none" 
	d="
M528.968140,90.226479 
	C533.937927,105.652496 527.168396,120.499931 513.081116,125.698006 
	C499.521606,130.701340 484.289459,124.105125 478.628082,110.778252 
	C473.124115,97.821953 478.497375,82.688744 490.933960,76.120087 
	C503.564453,69.448990 519.281860,73.714554 526.777039,85.876289 
	C527.559509,87.145950 528.165100,88.524689 528.968140,90.226479 
z"/>
<path fill="#FCFCFC" opacity="1.000000" stroke="none" 
	d="
M514.922302,501.094604 
	C506.332062,491.360565 504.435944,480.168488 509.424683,469.900665 
	C514.311951,459.841766 524.340393,454.158386 535.974182,454.854492 
	C546.618103,455.491364 555.824280,462.640350 559.377136,473.027771 
	C563.271301,484.413208 559.096924,497.108704 549.211853,503.943115 
	C538.603760,511.277374 526.020874,510.317474 514.922302,501.094604 
z"/>
<path fill="#FCFCFC" opacity="1.000000" stroke="none" 
	d="
M175.832397,341.335083 
	C164.608109,334.544159 159.345200,323.746765 161.614929,312.645447 
	C164.099945,300.491119 172.538559,292.530365 184.984344,290.599335 
	C199.160660,288.399750 213.432999,299.645386 214.971634,314.227264 
	C216.549103,329.177216 205.627960,343.244965 191.199142,343.932434 
	C186.235397,344.168976 181.175507,342.387085 175.832397,341.335083 
z"/>
<path fill="#FBFBFB" opacity="1.000000" stroke="none" 
	d="
M267.863281,283.651581 
	C262.448120,294.143341 253.654968,299.204712 243.558136,297.925964 
	C234.382187,296.763855 226.341629,289.730103 224.101822,280.905945 
	C221.660339,271.287231 225.283722,261.506104 233.346008,255.951614 
	C241.248138,250.507477 251.672180,250.498642 259.531128,255.929459 
	C267.726715,261.592896 271.236572,271.398041 268.637909,281.403992 
	C268.471558,282.044373 268.214417,282.661102 267.863281,283.651581 
z"/>
<path fill="#FBFBFB" opacity="1.000000" stroke="none" 
	d="
M521.738892,151.090057 
	C530.359070,156.215805 534.634949,163.491959 533.978699,173.176498 
	C533.395142,181.787552 528.975220,188.182480 521.271423,192.091141 
	C512.090332,196.749283 500.856995,194.515930 493.960938,186.855316 
	C487.008636,179.132294 486.073242,167.935867 491.647675,159.167267 
	C497.173889,150.474487 507.856476,146.467377 517.718445,149.433884 
	C518.981018,149.813675 520.172241,150.430527 521.738892,151.090057 
z"/>
<path fill="#FCFCFC" opacity="1.000000" stroke="none" 
	d="
M566.865356,157.650558 
	C580.272217,155.869049 591.519531,163.332748 593.927551,175.216675 
	C596.432617,187.579605 589.222412,199.122009 576.980225,202.346848 
	C565.428528,205.389786 553.504456,198.823990 549.660095,187.303497 
	C545.345764,174.374542 552.724182,161.412186 566.865356,157.650558 
z"/>
<path fill="#FBFBFB" opacity="1.000000" stroke="none" 
	d="
M224.752502,195.315186 
	C240.512512,196.722763 249.976440,211.337234 245.337646,225.569275 
	C241.748260,236.581680 231.046036,242.875366 219.441605,240.991043 
	C208.944260,239.286484 200.954315,229.869720 200.697586,218.899734 
	C200.430649,207.493103 208.120743,198.005295 219.405060,195.880508 
	C221.028076,195.574921 222.690872,195.480606 224.752502,195.315186 
z"/>
<path fill="#FCFCFC" opacity="1.000000" stroke="none" 
	d="
M430.066772,522.994507 
	C417.449982,521.640930 408.743713,513.491699 407.937134,502.689087 
	C407.058105,490.915894 413.975708,480.813690 424.740265,478.150543 
	C437.258942,475.053467 449.690552,482.581177 452.707886,495.085785 
	C455.634918,507.216187 447.955902,519.359009 435.419373,522.335510 
	C433.819000,522.715515 432.144501,522.783386 430.066772,522.994507 
z"/>
<path fill="#FCFCFC" opacity="1.000000" stroke="none" 
	d="
M447.392212,462.374023 
	C442.585114,448.577728 448.222992,435.960724 460.771545,431.698059 
	C472.571960,427.689484 485.177521,433.922394 489.267883,445.788269 
	C493.049988,456.759949 487.750031,468.941925 477.130188,473.686890 
	C466.006836,478.656860 454.042847,474.216827 447.392212,462.374023 
z"/>
<path fill="#FBFBFB" opacity="1.000000" stroke="none" 
	d="
M498.311157,213.124390 
	C509.574860,211.602386 517.910583,215.758804 521.762878,224.549805 
	C525.314941,232.655960 523.060669,242.571167 516.176880,248.085434 
	C509.803650,253.190674 502.657410,254.384750 495.150452,250.978500 
	C487.488464,247.501923 483.339600,241.266190 483.215759,232.897827 
	C483.094971,224.735321 487.016083,218.610809 494.245941,214.722900 
	C495.408356,214.097824 496.693451,213.700790 498.311157,213.124390 
z"/>
<path fill="#FBFBFB" opacity="1.000000" stroke="none" 
	d="
M310.081848,269.295319 
	C298.682861,273.872620 286.130615,266.771454 283.483582,255.196686 
	C281.077362,244.674683 287.873016,234.121017 298.877960,231.600098 
	C308.300568,229.441635 318.136566,235.027740 321.439667,244.413498 
	C324.924133,254.314575 320.636292,263.958496 310.081848,269.295319 
z"/>
<path fill="#FBFBFB" opacity="1.000000" stroke="none" 
	d="
M415.605774,396.233337 
	C425.016388,395.279785 432.071655,398.480743 436.429962,406.493439 
	C440.376038,413.748352 439.591644,420.947540 434.783997,427.575043 
	C429.988525,434.185760 421.189423,436.964142 413.426361,434.592743 
	C405.399353,432.140717 399.805176,424.995422 399.285431,416.530853 
	C398.816681,408.896729 403.673584,401.060028 410.969818,397.786194 
	C412.324951,397.178192 413.779816,396.792389 415.605774,396.233337 
z"/>
<path fill="#FBFBFB" opacity="1.000000" stroke="none" 
	d="
M631.284485,264.970215 
	C627.260559,275.530334 619.164001,280.519531 608.994812,279.032532 
	C600.344177,277.767578 593.514343,270.305664 592.734009,261.266815 
	C591.915466,251.785904 597.501526,243.509018 606.640259,240.661896 
	C621.315613,236.089890 634.586426,248.907913 631.284485,264.970215 
z"/>
<path fill="#FBFBFB" opacity="1.000000" stroke="none" 
	d="
M299.021179,198.892212 
	C295.265778,209.531799 288.366760,214.551270 278.567291,214.125061 
	C269.970001,213.751160 262.747101,207.591568 260.594177,198.797913 
	C257.987762,188.152069 265.568268,176.779327 276.394745,175.092896 
	C287.923035,173.297119 298.408051,181.259094 299.257996,192.540161 
	C299.406433,194.510727 299.148834,196.511887 299.021179,198.892212 
z"/>
<path fill="#FBFBFB" opacity="1.000000" stroke="none" 
	d="
M557.689148,259.531616 
	C548.179565,255.344879 543.141235,247.155777 544.531616,238.548172 
	C546.079163,228.967804 553.086792,222.233063 562.509460,221.270355 
	C570.834412,220.419785 579.480042,225.938828 582.420959,234.153915 
	C584.986267,241.320160 583.824768,248.000763 578.866760,253.743927 
	C573.302124,260.189758 566.138916,261.753693 557.689148,259.531616 
z"/>
<path fill="#FBFBFB" opacity="1.000000" stroke="none" 
	d="
M370.295380,479.819336 
	C360.183289,470.981720 359.246643,458.310394 367.791351,449.819702 
	C375.830109,441.831787 388.695343,442.218933 396.290009,450.677246 
	C402.603149,457.708405 402.930725,468.475494 397.058258,475.931824 
	C390.731567,483.964874 380.370667,485.568787 370.295380,479.819336 
z"/>
<path fill="#FBFBFB" opacity="1.000000" stroke="none" 
	d="
M346.971497,477.689911 
	C356.964996,481.643158 362.288391,490.056610 360.867828,499.194458 
	C359.455353,508.279968 351.923920,515.356628 342.979065,516.002930 
	C333.731750,516.671082 325.471100,511.163208 322.740875,502.248932 
	C318.162445,487.300446 331.508850,473.581451 346.971497,477.689911 
z"/>
<path fill="#FBFBFB" opacity="1.000000" stroke="none" 
	d="
M282.071289,159.246490 
	C273.172668,163.819595 264.880188,163.005051 258.649902,157.178589 
	C252.928085,151.827652 251.047348,143.317581 253.987244,136.080887 
	C257.035736,128.576889 264.420502,123.785507 272.458405,124.096428 
	C280.200592,124.395905 287.363037,129.739777 289.803040,137.037170 
	C292.565826,145.299911 290.037018,152.801468 282.071289,159.246490 
z"/>
<path fill="#FBFBFB" opacity="1.000000" stroke="none" 
	d="
M607.810059,318.675507 
	C602.448486,324.809204 596.108459,326.722717 588.763489,324.189911 
	C581.774597,321.779907 578.000671,316.488403 577.588928,309.224091 
	C577.200562,302.372314 580.258911,297.017517 586.280823,293.588287 
	C592.837158,289.854706 601.083313,291.109192 606.415344,296.506805 
	C612.190002,302.352509 612.785400,310.414093 607.810059,318.675507 
z"/>
<path fill="#FAFAFA" opacity="1.000000" stroke="none" 
	d="
M316.685669,118.451813 
	C326.142395,116.127983 333.234253,118.710831 337.312561,125.666771 
	C340.957245,131.883118 340.245605,139.779129 335.553558,145.183273 
	C331.006683,150.420242 323.998810,152.331039 317.453094,150.118622 
	C311.058533,147.957306 306.442566,142.271530 306.041229,135.770218 
	C305.545807,127.744102 309.084259,122.043869 316.685669,118.451813 
z"/>
<path fill="#FBFBFB" opacity="1.000000" stroke="none" 
	d="
M472.775208,270.860107 
	C480.264160,263.663849 489.406677,262.858002 496.378418,268.518890 
	C502.858551,273.780579 504.534912,282.960571 500.325500,290.134155 
	C495.534180,298.299347 484.883148,300.941620 476.853210,295.957031 
	C468.249146,290.616058 466.491669,280.513458 472.775208,270.860107 
z"/>
<path fill="#FAFAFA" opacity="1.000000" stroke="none" 
	d="
M337.656189,237.928406 
	C340.894562,228.632538 348.527283,223.701248 356.845306,225.239212 
	C364.761749,226.702927 370.772003,233.751572 370.899475,241.721497 
	C371.032532,250.042145 364.899414,257.093201 356.218567,258.599670 
	C345.087494,260.531311 335.908173,250.572357 337.656189,237.928406 
z"/>
<path fill="#FAFAFA" opacity="1.000000" stroke="none" 
	d="
M314.357361,183.475067 
	C317.118286,172.871613 323.846649,167.883362 333.521667,168.921753 
	C341.333893,169.760223 347.689606,176.740204 348.003754,184.826340 
	C348.372803,194.325607 340.937317,202.133865 331.418427,202.243225 
	C321.232239,202.360214 314.342377,194.974091 314.357361,183.475067 
z"/>
<path fill="#FAFAFA" opacity="1.000000" stroke="none" 
	d="
M550.093872,273.614777 
	C560.074463,277.049896 564.833008,285.280426 562.299622,294.212036 
	C559.753052,303.190155 551.368591,308.174927 542.264526,306.123352 
	C533.852112,304.227661 528.161194,295.764038 529.671143,287.394073 
	C531.452698,277.518829 539.100769,272.205383 550.093872,273.614777 
z"/>
<path fill="#FAFAFA" opacity="1.000000" stroke="none" 
	d="
M374.478638,363.431183 
	C382.525970,357.723846 390.348511,357.710480 396.641907,363.144318 
	C402.453613,368.162354 404.187195,376.803101 400.577698,383.540802 
	C397.295410,389.667694 391.999603,392.757629 385.111542,392.519623 
	C378.202942,392.280945 373.056885,388.778534 370.366364,382.417633 
	C367.417114,375.445099 368.947052,369.109283 374.478638,363.431183 
z"/>
<path fill="#FAFAFA" opacity="1.000000" stroke="none" 
	d="
M362.605896,415.601898 
	C366.159271,422.731995 365.510040,429.183655 360.581573,434.904694 
	C356.038818,440.177917 350.019073,441.758087 343.429352,439.901428 
	C336.791534,438.031219 332.875549,433.339752 331.544739,426.543396 
	C330.151093,419.426056 334.277924,411.750549 341.178558,408.635010 
	C348.972961,405.115906 356.676697,407.527618 362.605896,415.601898 
z"/>
<path fill="#FBFBFB" opacity="1.000000" stroke="none" 
	d="
M291.039673,455.253906 
	C292.859253,446.542419 297.625671,441.399048 304.663361,440.155243 
	C311.359955,438.971710 318.262268,442.026611 321.853729,447.763550 
	C325.500000,453.588074 325.076996,461.540161 320.834747,466.920044 
	C316.453400,472.476257 309.148315,474.693451 302.496643,472.486023 
	C295.254333,470.082550 291.249298,464.217163 291.039673,455.253906 
z"/>
<path fill="#F9F9F9" opacity="1.000000" stroke="none" 
	d="
M525.113281,312.842255 
	C532.838196,315.421204 537.019409,320.884186 536.687683,327.536377 
	C536.370728,333.893951 531.866577,339.549927 525.931091,341.043762 
	C519.418396,342.682922 512.860229,340.101440 509.594086,334.423645 
	C506.593323,329.207245 506.662964,323.859650 510.052063,318.906311 
	C513.537842,313.811676 518.522400,311.672668 525.113281,312.842255 
z"/>
<path fill="#FAFAFA" opacity="1.000000" stroke="none" 
	d="
M355.520874,127.630966 
	C361.393707,121.796982 367.231140,120.479439 373.290100,123.387032 
	C378.664398,125.966072 381.845886,131.537582 381.403717,137.595871 
	C380.949402,143.820648 376.866730,148.782578 370.759033,150.533142 
	C365.324219,152.090836 359.258026,150.068237 355.625885,145.487396 
	C351.596954,140.406113 351.485016,134.584152 355.520874,127.630966 
z"/>
<path fill="#FBFBFB" opacity="1.000000" stroke="none" 
	d="
M318.601410,373.514801 
	C324.430634,369.173523 330.259308,368.710205 336.040222,372.513733 
	C341.289215,375.967407 343.211273,381.136017 342.125305,387.262817 
	C341.060791,393.268494 337.239471,396.928314 331.480408,398.557739 
	C325.550354,400.235596 318.885162,397.406097 315.587830,391.961853 
	C312.075378,386.162567 313.049011,379.687531 318.601410,373.514801 
z"/>
<path fill="#FAFAFA" opacity="1.000000" stroke="none" 
	d="
M394.891174,258.214752 
	C385.525909,254.775299 381.562103,246.936752 384.770111,238.895233 
	C387.792786,231.318329 396.216583,227.732437 403.693817,230.839691 
	C410.688385,233.746353 414.193909,241.139359 412.040039,248.441559 
	C409.944031,255.547592 403.158905,259.532349 394.891174,258.214752 
z"/>
<path fill="#FAFAFA" opacity="1.000000" stroke="none" 
	d="
M361.004150,189.656586 
	C361.007019,180.198090 365.952606,174.114670 373.975433,173.238586 
	C380.563507,172.519180 387.319580,177.225815 389.077545,183.759552 
	C391.197296,191.637833 386.731384,199.486572 378.899231,201.647751 
	C370.968445,203.836151 363.701874,199.128754 361.004150,189.656586 
z"/>
<path fill="#F9F9F9" opacity="1.000000" stroke="none" 
	d="
M473.211090,309.951416 
	C477.148987,316.038696 477.236603,321.862274 473.093170,327.377441 
	C469.481781,332.184509 464.394135,334.040253 458.554016,332.700226 
	C452.522644,331.316345 448.815430,327.293030 447.474335,321.218811 
	C446.204651,315.467957 449.246643,309.087677 454.626984,306.062653 
	C460.847595,302.565186 467.157440,303.798645 473.211090,309.951416 
z"/>
<path fill="#F8F8F8" opacity="1.000000" stroke="none" 
	d="
M361.968384,350.180328 
	C352.829407,346.524719 349.091797,338.950378 352.198212,331.092987 
	C355.065155,323.841309 363.479309,320.201721 370.742981,323.071320 
	C377.569580,325.768219 381.241211,333.111176 379.259216,340.102966 
	C377.101288,347.715393 370.502594,351.677734 361.968384,350.180328 
z"/>
<path fill="#F9F9F9" opacity="1.000000" stroke="none" 
	d="
M282.625702,430.621338 
	C275.082306,426.491455 272.230896,420.774414 273.947784,413.745209 
	C275.465485,407.531586 280.837250,403.152039 287.193817,402.945892 
	C293.932648,402.727386 299.691742,406.611023 301.536865,412.991089 
	C305.105774,425.331390 293.304138,434.684723 282.625702,430.621338 
z"/>
<path fill="#F9F9F9" opacity="1.000000" stroke="none" 
	d="
M574.097168,359.400879 
	C564.600586,360.807922 557.491272,355.858643 556.261353,347.382172 
	C555.200500,340.070862 560.574341,333.051483 568.343079,331.600952 
	C575.874023,330.194824 583.067261,335.489014 584.585938,343.555634 
	C585.848999,350.264496 581.971802,356.292023 574.097168,359.400879 
z"/>
<path fill="#F9F9F9" opacity="1.000000" stroke="none" 
	d="
M532.251587,377.395569 
	C529.709839,369.882324 531.660645,363.853943 537.393433,360.624969 
	C542.844299,357.554688 549.653137,358.916168 553.557007,363.856873 
	C557.265320,368.550049 557.101501,375.418030 553.172668,379.971802 
	C547.508606,386.536804 538.145935,385.535431 532.251587,377.395569 
z"/>
<path fill="#F8F8F8" opacity="1.000000" stroke="none" 
	d="
M358.406982,287.615906 
	C365.689728,289.809631 369.543365,294.869263 368.966644,301.087708 
	C368.423584,306.943207 363.935944,311.589264 358.092560,312.345551 
	C352.062927,313.125916 346.794220,310.003571 344.656036,304.382751 
	C341.308807,295.583588 347.786804,287.414520 358.406982,287.615906 
z"/>
<path fill="#F9F9F9" opacity="1.000000" stroke="none" 
	d="
M507.297272,356.122162 
	C504.321198,363.601868 499.064240,366.764679 492.566803,365.307678 
	C486.245667,363.890198 482.333435,358.706818 482.713684,352.253265 
	C483.073395,346.149200 487.567413,341.421265 493.733917,340.659515 
	C502.253174,339.607147 508.686554,346.710266 507.297272,356.122162 
z"/>
<path fill="#F9F9F9" opacity="1.000000" stroke="none" 
	d="
M447.080688,346.653992 
	C445.746704,352.606415 442.457672,356.202332 436.747650,357.110931 
	C431.535248,357.940338 427.210876,356.165497 424.270020,351.728424 
	C421.341949,347.310760 421.328674,342.690277 424.111176,338.159149 
	C427.002960,333.450134 432.651733,331.269043 437.870697,332.748413 
	C444.093109,334.512238 447.028564,338.794525 447.080688,346.653992 
z"/>
<path fill="#F9F9F9" opacity="1.000000" stroke="none" 
	d="
M319.822449,335.891083 
	C327.802399,337.493195 331.708954,342.311371 331.177612,349.398132 
	C330.720093,355.500275 325.607330,360.411133 319.367157,360.742157 
	C313.196716,361.069489 307.595764,356.363556 306.487091,349.920258 
	C305.212555,342.512970 310.875977,336.351196 319.822449,335.891083 
z"/>
<path fill="#F8F8F8" opacity="1.000000" stroke="none" 
	d="
M278.923035,393.160278 
	C271.102600,392.421875 266.355591,387.906311 266.075226,381.345642 
	C265.802856,374.973114 270.396820,369.494080 276.915100,368.417236 
	C282.810547,367.443298 288.792969,371.486267 290.551697,377.633057 
	C292.659271,384.999084 287.788574,391.743469 278.923035,393.160278 
z"/>
<path fill="#F8F8F8" opacity="1.000000" stroke="none" 
	d="
M428.938263,265.265015 
	C423.000793,260.771484 421.175079,255.551773 423.334442,250.016052 
	C425.182495,245.278381 430.617767,241.832779 435.549316,242.272690 
	C440.992249,242.758194 446.213654,246.660660 446.446655,252.113373 
	C446.605377,255.828171 445.174866,260.355255 442.866547,263.254425 
	C439.508514,267.471985 434.320404,267.823059 428.938263,265.265015 
z"/>
<path fill="#F9F9F9" opacity="1.000000" stroke="none" 
	d="
M419.809448,189.103287 
	C424.443176,195.093979 424.824280,200.455673 421.216095,205.311737 
	C417.935303,209.727158 412.080444,211.459976 406.979980,209.525146 
	C401.662567,207.508041 398.424469,202.184021 399.062622,196.507309 
	C400.161072,186.735840 410.762909,182.767700 419.809448,189.103287 
z"/>
<path fill="#F9F9F9" opacity="1.000000" stroke="none" 
	d="
M414.943237,143.221680 
	C416.121826,149.567337 414.581055,154.525299 409.062744,157.578766 
	C404.602875,160.046555 400.100098,159.623825 395.966492,156.645111 
	C391.957489,153.756134 390.127533,148.481644 391.351532,143.858292 
	C392.634735,139.011261 396.661102,135.438477 401.492096,134.860077 
	C407.657257,134.121964 411.493408,136.417343 414.943237,143.221680 
z"/>
<path fill="#F7F7F7" opacity="1.000000" stroke="none" 
	d="
M427.266296,152.095734 
	C434.633301,150.442154 440.378479,153.658234 441.840973,159.943939 
	C443.134705,165.504471 439.327545,171.667160 433.800598,172.959061 
	C427.811249,174.359070 421.949432,170.791260 420.415009,164.811935 
	C419.176758,159.986725 421.443726,155.580460 427.266296,152.095734 
z"/>
<path fill="#F7F7F7" opacity="1.000000" stroke="none" 
	d="
M463.427795,360.146759 
	C470.393860,358.214233 476.054047,360.757080 477.965607,366.377533 
	C479.751923,371.629639 477.309418,377.503357 472.383820,379.800659 
	C467.360870,382.143372 461.395050,380.307831 458.545044,375.542786 
	C455.291595,370.103363 456.922241,364.599121 463.427795,360.146759 
z"/>
<path fill="#F8F8F8" opacity="1.000000" stroke="none" 
	d="
M309.261810,310.410767 
	C313.883026,305.423615 317.992676,304.157196 322.659088,306.334290 
	C326.947662,308.335114 329.265778,311.794128 329.066559,316.614594 
	C328.858337,321.654327 326.141998,324.957642 321.426178,326.514496 
	C317.231110,327.899384 313.485962,326.718506 310.560028,323.589386 
	C306.984528,319.765533 306.761169,315.339905 309.261810,310.410767 
z"/>
<path fill="#F7F7F7" opacity="1.000000" stroke="none" 
	d="
M278.811096,359.423767 
	C273.187042,359.384369 269.576324,356.980469 267.932373,351.925537 
	C266.479065,347.456848 267.845886,343.658997 271.274048,340.730347 
	C274.742767,337.767029 278.800537,337.208466 282.894745,339.360107 
	C287.122131,341.581757 289.175262,345.301788 288.723999,350.043762 
	C288.249451,355.030396 284.907928,358.102173 278.811096,359.423767 
z"/>
<path fill="#F8F8F8" opacity="1.000000" stroke="none" 
	d="
M443.720673,223.099625 
	C436.487518,225.049911 430.664948,222.222275 429.129913,216.327820 
	C427.677002,210.748871 430.868805,204.818710 436.183136,203.223297 
	C441.872253,201.515381 447.832733,204.708282 449.607544,210.414536 
	C451.077087,215.139343 449.252777,219.290955 443.720673,223.099625 
z"/>
<path fill="#F7F7F7" opacity="1.000000" stroke="none" 
	d="
M516.830688,398.068542 
	C511.053864,397.983124 507.680817,395.154236 506.439117,390.108917 
	C505.380005,385.805389 507.151398,382.262024 510.751831,379.817200 
	C514.618042,377.191925 518.614868,377.458008 522.295837,380.213348 
	C525.670898,382.739746 526.854126,386.348694 525.914795,390.368744 
	C524.870483,394.838196 521.826416,397.408081 516.830688,398.068542 
z"/>
<path fill="#F7F7F7" opacity="1.000000" stroke="none" 
	d="
M493.761322,388.090393 
	C498.773804,390.702728 500.321655,394.701050 498.827576,399.541138 
	C497.569092,403.617981 494.258850,405.653412 490.006714,405.504608 
	C485.746277,405.355499 483.024200,402.975616 481.565247,398.933594 
	C479.487061,393.175964 485.829559,385.056610 493.761322,388.090393 
z"/>
<path fill="#F7F7F7" opacity="1.000000" stroke="none" 
	d="
M276.151520,317.245117 
	C279.609650,313.265259 283.509644,312.080750 287.927582,314.483490 
	C291.439423,316.393524 293.635193,319.791687 292.377411,323.566193 
	C291.442993,326.370422 288.996674,329.895752 286.500366,330.625641 
	C283.756195,331.428009 279.544708,330.238129 277.123688,328.399994 
	C273.618011,325.738373 273.766846,321.472076 276.151520,317.245117 
z"/>
<path fill="#F7F7F7" opacity="1.000000" stroke="none" 
	d="
M451.810059,171.484604 
	C458.529541,173.212662 461.255981,176.973389 460.153564,182.521545 
	C459.215118,187.244736 454.660156,190.179138 449.606018,189.189819 
	C445.054596,188.298904 442.841553,185.132736 442.442230,180.802429 
	C442.006775,176.080154 445.395935,172.742706 451.810059,171.484604 
z"/>
</svg>