<svg version="1.1" id="Layer_1" xmlns="http://www.w3.org/2000/svg" xmlns:xlink="http://www.w3.org/1999/xlink" x="0px" y="0px"
	 width="100%" viewBox="0 0 219 230" enable-background="new 0 0 219 230" xml:space="preserve">
<path fill="#FBFDFE" opacity="1.000000" stroke="none" 
	d="
M143.000000,1.000001 
	C168.638565,1.000000 194.277130,1.000000 219.957855,1.000000 
	C219.957855,77.554611 219.957855,154.109253 219.957855,231.000000 
	C189.313263,231.000000 158.625290,231.000000 127.625038,230.638412 
	C131.903534,228.904388 136.545410,227.679916 141.070602,226.117538 
	C145.519684,224.581436 148.044296,221.342239 147.073013,216.532623 
	C145.847183,210.462601 148.583725,206.866226 153.579834,204.232574 
	C155.041809,203.461914 156.290344,202.284210 157.756378,201.523773 
	C165.910187,197.294296 171.215881,191.325943 169.771027,180.735718 
	C177.728500,180.735718 185.151169,180.735718 192.893600,180.735718 
	C192.004318,173.147369 191.201538,166.297165 190.375610,159.249390 
	C198.221848,156.709930 205.709335,154.286575 213.338333,151.817429 
	C209.768631,142.202881 206.290604,133.229446 203.193863,124.126328 
	C202.644913,122.512634 203.098801,119.950684 204.092743,118.526901 
	C207.898117,113.075874 211.899536,107.726028 216.248001,102.702126 
	C219.237122,99.248703 219.501709,96.949013 215.813446,93.709724 
	C209.442078,88.113922 203.613068,81.904930 197.433716,76.083572 
	C195.532425,74.292442 194.927261,72.785599 195.787506,70.065681 
	C198.583740,61.224724 200.979446,52.256142 203.471405,43.320541 
	C204.154388,40.871582 204.634415,38.366024 205.206863,35.889572 
	C202.296356,35.646717 200.032059,35.457779 197.264053,35.189327 
	C193.504257,35.413956 190.248138,35.718102 186.524841,35.990532 
	C180.401382,36.084061 174.732971,36.462700 169.095673,36.192314 
	C167.211411,36.101940 164.699692,34.822838 163.679367,33.286919 
	C156.608383,22.642763 149.855194,11.787497 143.000000,1.000001 
z"/>
<path fill="#FBFDFE" opacity="1.000000" stroke="none" 
	d="
M107.000000,231.000000 
	C71.734589,231.000000 36.469173,231.000000 1.000000,231.000000 
	C1.000000,190.645996 1.000000,150.291656 1.349890,109.432281 
	C8.090589,116.796326 14.397356,124.736229 20.929329,132.486328 
	C22.633802,134.508667 22.538694,135.968323 21.376560,138.140015 
	C18.170025,144.132095 15.221787,150.262405 12.022595,156.634415 
	C17.862225,159.051544 23.360802,161.921585 29.202341,163.592957 
	C36.279350,165.617798 39.806839,169.260330 38.673996,176.901154 
	C38.290543,179.487457 39.026039,182.220657 38.868267,184.863953 
	C38.642094,188.653244 40.241756,189.407227 43.680527,188.727386 
	C50.490925,187.381012 57.359524,186.329025 64.797668,185.053558 
	C64.148224,192.875992 69.035202,196.722809 74.602394,200.170197 
	C77.706612,202.092407 80.573044,204.405228 83.711456,206.263718 
	C86.776077,208.078537 87.788750,210.230179 87.327530,213.950943 
	C86.346085,221.868484 87.929855,224.111694 95.484261,227.094666 
	C99.249748,228.581558 103.156921,229.709625 107.000000,231.000000 
z"/>
<path fill="#FBFDFE" opacity="1.000000" stroke="none" 
	d="
M0.999999,107.000000 
	C1.000000,71.729347 1.000000,36.458694 1.000000,1.000000 
	C47.687393,1.000000 94.375038,1.000000 141.443314,1.331152 
	C132.650803,7.961873 123.393303,14.144039 114.358124,20.635635 
	C111.791710,22.479546 109.960487,22.420387 107.304016,20.957237 
	C96.148827,14.813083 84.861168,8.909418 73.396904,2.797688 
	C69.800529,15.670498 66.183380,28.075640 62.921955,40.573608 
	C61.713600,45.204094 58.543030,45.750309 54.732616,45.888302 
	C42.774529,46.321350 30.817680,46.788540 18.406088,47.259754 
	C21.102648,60.233540 23.700674,72.549400 26.168791,84.891251 
	C26.416643,86.130630 26.375412,88.178139 25.626770,88.751221 
	C17.514826,94.960831 9.234426,100.950386 0.999999,107.000000 
z"/>
<path fill="#3C3B3E" opacity="1.000000" stroke="none" 
	d="
M0.999999,107.333328 
	C9.234426,100.950386 17.514826,94.960831 25.626770,88.751221 
	C26.375412,88.178139 26.416643,86.130630 26.168791,84.891251 
	C23.700674,72.549400 21.102648,60.233540 18.406088,47.259754 
	C30.817680,46.788540 42.774529,46.321350 54.732616,45.888302 
	C58.543030,45.750309 61.713600,45.204094 62.921955,40.573608 
	C66.183380,28.075640 69.800529,15.670498 73.396904,2.797688 
	C84.861168,8.909418 96.148827,14.813083 107.304016,20.957237 
	C109.960487,22.420387 111.791710,22.479546 114.358124,20.635635 
	C123.393303,14.144039 132.650803,7.961873 141.911972,1.331152 
	C142.000000,1.000000 142.500000,1.000000 142.750000,1.000001 
	C149.855194,11.787497 156.608383,22.642763 163.679367,33.286919 
	C164.699692,34.822838 167.211411,36.101940 169.095673,36.192314 
	C174.732971,36.462700 180.401382,36.084061 186.732056,36.358688 
	C190.860214,36.261986 194.313980,35.765419 197.767746,35.268845 
	C200.032059,35.457779 202.296356,35.646717 205.206863,35.889572 
	C204.634415,38.366024 204.154388,40.871582 203.471405,43.320541 
	C200.979446,52.256142 198.583740,61.224724 195.787506,70.065681 
	C194.927261,72.785599 195.532425,74.292442 197.433716,76.083572 
	C203.613068,81.904930 209.442078,88.113922 215.813446,93.709724 
	C219.501709,96.949013 219.237122,99.248703 216.248001,102.702126 
	C211.899536,107.726028 207.898117,113.075874 204.092743,118.526901 
	C203.098801,119.950684 202.644913,122.512634 203.193863,124.126328 
	C206.290604,133.229446 209.768631,142.202881 213.338333,151.817429 
	C205.709335,154.286575 198.221848,156.709930 190.375610,159.249390 
	C191.201538,166.297165 192.004318,173.147369 192.893600,180.735718 
	C185.151169,180.735718 177.728500,180.735718 169.771027,180.735718 
	C171.215881,191.325943 165.910187,197.294296 157.756378,201.523773 
	C156.290344,202.284210 155.041809,203.461914 153.579834,204.232574 
	C148.583725,206.866226 145.847183,210.462601 147.073013,216.532623 
	C148.044296,221.342239 145.519684,224.581436 141.070602,226.117538 
	C136.545410,227.679916 131.903534,228.904388 127.156380,230.638412 
	C120.645599,231.000000 114.291206,231.000000 107.468399,231.000000 
	C103.156921,229.709625 99.249748,228.581558 95.484261,227.094666 
	C87.929855,224.111694 86.346085,221.868484 87.327530,213.950943 
	C87.788750,210.230179 86.776077,208.078537 83.711456,206.263718 
	C80.573044,204.405228 77.706612,202.092407 74.602394,200.170197 
	C69.035202,196.722809 64.148224,192.875992 64.797668,185.053558 
	C57.359524,186.329025 50.490925,187.381012 43.680527,188.727386 
	C40.241756,189.407227 38.642094,188.653244 38.868267,184.863953 
	C39.026039,182.220657 38.290543,179.487457 38.673996,176.901154 
	C39.806839,169.260330 36.279350,165.617798 29.202341,163.592957 
	C23.360802,161.921585 17.862225,159.051544 12.022595,156.634415 
	C15.221787,150.262405 18.170025,144.132095 21.376560,138.140015 
	C22.538694,135.968323 22.633802,134.508667 20.929329,132.486328 
	C14.397356,124.736229 8.090589,116.796326 1.349890,108.963623 
	C1.000000,108.555557 1.000000,108.111107 0.999999,107.333328 
M168.071930,172.940048 
	C168.071930,172.940048 168.113052,172.839676 168.054993,173.662399 
	C168.078049,174.211395 168.101105,174.760376 168.168198,176.074753 
	C173.426498,176.624847 178.679733,177.521576 183.944946,177.598434 
	C187.241760,177.646576 188.512238,175.399582 187.898560,171.831177 
	C187.003952,166.629272 186.662506,161.332230 186.815445,155.907272 
	C192.182434,154.203400 197.549423,152.499527 203.613419,150.717468 
	C204.954941,150.195770 206.296478,149.674088 207.918228,149.043427 
	C204.913513,140.973480 202.235291,133.143677 199.061035,125.520401 
	C197.443497,121.635696 198.000656,118.894005 200.716873,115.729614 
	C205.450211,110.215240 209.687027,104.274673 214.356842,98.221214 
	C213.064621,97.031113 212.003845,96.054161 210.548645,94.539879 
	C203.714020,87.709427 196.879379,80.878975 190.558716,73.515388 
	C193.713058,62.475544 196.867401,51.435696 200.117249,40.061588 
	C197.895065,40.061588 196.431061,40.061588 194.037170,39.978046 
	C185.214340,40.208717 176.385193,40.310200 167.572159,40.741196 
	C164.548965,40.889038 162.725571,40.040932 161.097916,37.426975 
	C155.566086,28.543032 149.776703,19.819460 143.932220,10.359743 
	C143.138153,9.230012 142.344086,8.100280 141.463150,6.846969 
	C131.301666,13.885147 121.543861,20.643715 111.054634,27.289223 
	C101.045647,22.137869 91.036659,16.986513 80.625954,11.315453 
	C79.195282,10.592724 77.764610,9.869995 75.921783,8.939057 
	C72.232605,22.200417 68.645760,35.093925 64.255310,48.233486 
	C52.497860,49.174469 40.740410,50.115452 28.100534,50.957775 
	C26.662437,51.076614 25.224340,51.195454 23.431688,51.343594 
	C25.814224,62.754570 27.933582,73.804916 30.510620,84.747475 
	C31.383480,88.453789 30.263296,90.653107 27.501755,92.729927 
	C20.644430,97.886978 13.864424,103.146843 6.776177,108.577789 
	C8.008695,109.909874 8.994105,110.974892 10.198073,112.674416 
	C16.047911,120.063988 21.897747,127.453560 27.259583,135.329330 
	C24.126322,141.653992 20.993061,147.978668 17.738930,154.547318 
	C19.684204,155.299973 21.211046,155.890717 23.327938,156.848038 
	C29.623617,159.532578 35.919300,162.217117 42.176270,165.823700 
	C42.464760,171.935333 42.753246,178.046967 43.057976,184.502655 
	C44.990685,184.148468 46.600315,183.853470 49.037441,183.521469 
	C50.948051,183.320175 52.858662,183.118896 55.684929,182.960983 
	C57.016281,182.967560 58.523697,183.388412 59.649006,182.910172 
	C64.981537,180.643967 67.557732,183.005478 69.018333,188.488922 
	C69.009674,188.680679 69.001022,188.872421 69.008247,189.690277 
	C69.503708,190.454269 69.999176,191.218262 71.066734,192.419357 
	C76.362099,196.128983 81.567551,199.976730 86.983009,203.501862 
	C90.884872,206.041763 92.775162,208.865356 91.411324,213.809402 
	C90.622559,216.668747 90.174522,220.505951 94.181190,221.887711 
	C100.511742,224.070923 106.973930,227.474060 113.372643,227.456924 
	C121.570084,227.435013 129.759827,224.533997 138.472198,222.833878 
	C138.672485,222.575912 138.872772,222.317963 138.991196,222.028427 
	C138.991196,222.028427 139.065903,222.077850 139.833618,222.024048 
	C143.187439,221.041245 143.599976,218.266235 142.982101,215.645859 
	C141.379791,208.850510 144.259048,204.430649 150.086990,201.770035 
	C162.567764,196.072174 168.307922,186.798935 166.808945,172.981705 
	C167.262482,172.952072 167.716034,172.922440 168.071930,172.940048 
z"/>
<path fill="#FBFDFD" opacity="1.000000" stroke="none" 
	d="
M197.264053,35.189331 
	C194.313980,35.765419 190.860214,36.261986 187.199249,36.390400 
	C190.248138,35.718102 193.504257,35.413956 197.264053,35.189331 
z"/>
<path fill="#FDD302" opacity="1.000000" stroke="none" 
	d="
M190.044754,74.048523 
	C196.879379,80.878975 203.714020,87.709427 210.716034,95.151154 
	C205.721558,102.620171 200.624100,109.527824 195.366394,116.311287 
	C193.242279,119.051788 192.797272,121.599327 194.055328,124.976143 
	C197.230942,133.499969 199.990265,142.178894 202.916382,150.795654 
	C197.549423,152.499527 192.182434,154.203400 186.066406,156.027771 
	C184.665588,158.247116 183.552353,160.327682 183.468155,162.449066 
	C183.335739,165.785690 183.896240,169.149826 184.190277,172.840240 
	C180.704224,172.840240 178.098373,172.840240 175.721527,172.566849 
	C181.416138,167.396942 181.935547,160.910309 180.638184,154.485168 
	C180.202026,152.325058 177.024384,149.846909 174.635422,149.181717 
	C171.883392,148.415436 169.442139,150.546188 168.309738,153.717957 
	C172.803085,151.322037 176.368378,151.822632 178.298599,156.436829 
	C181.308701,163.632446 176.092560,171.812592 168.113052,172.839676 
	C168.113052,172.839676 168.071930,172.940048 168.173157,172.562866 
	C169.613373,168.615753 170.952347,165.045837 172.291336,161.475906 
	C172.071213,161.238693 171.851089,161.001465 171.630981,160.764252 
	C170.327911,162.137985 169.024857,163.511719 167.517609,165.032745 
	C167.220139,165.492676 167.126862,165.805283 166.986053,166.310333 
	C166.938522,166.502762 166.771347,166.862213 166.417557,166.932953 
	C165.330261,168.034897 164.159546,168.981705 163.941315,170.112366 
	C163.130646,174.312225 162.061295,178.586838 162.166443,182.806519 
	C162.291946,187.842209 160.807648,191.381332 156.487656,194.025574 
	C151.677582,196.969772 146.936691,200.073730 142.460846,203.494354 
	C140.662552,204.868698 138.680130,207.176498 138.481506,209.224350 
	C138.071594,213.450211 138.803650,217.786804 139.065903,222.077850 
	C139.065903,222.077850 138.991196,222.028427 138.785263,222.075531 
	C138.276794,222.294739 138.067978,222.545044 137.952881,222.873550 
	C129.759827,224.533997 121.570084,227.435013 113.372643,227.456924 
	C106.973930,227.474060 100.511742,224.070923 94.181190,221.887711 
	C90.174522,220.505951 90.622559,216.668747 91.411324,213.809402 
	C92.775162,208.865356 90.884872,206.041763 86.983009,203.501862 
	C81.567551,199.976730 76.362099,196.128983 70.680267,191.945953 
	C69.859985,190.669754 69.426178,189.866959 68.992363,189.064178 
	C69.001022,188.872421 69.009674,188.680679 68.933128,187.757721 
	C68.590363,181.395477 68.610847,175.732910 67.977203,170.144485 
	C67.556793,166.436752 66.134048,162.881607 61.662777,160.402023 
	C63.559692,165.086731 65.042351,168.748352 66.785507,173.053329 
	C58.895523,171.323090 54.556740,165.704681 55.103107,159.245865 
	C55.651165,152.766983 58.399841,151.090149 64.366432,153.554733 
	C64.848228,153.753738 65.442429,153.680603 65.984398,153.733932 
	C66.192017,153.186935 66.399635,152.639954 66.607254,152.092957 
	C64.120888,151.054581 61.432438,148.898132 59.206459,149.300461 
	C57.090843,149.682816 54.403278,152.458755 53.811508,154.674759 
	C52.017841,161.391510 53.901051,172.713303 63.996265,175.099777 
	C65.000755,175.337250 66.507950,177.206436 66.313545,177.916031 
	C65.984909,179.115570 64.652481,180.491684 63.439026,180.906128 
	C60.645912,181.860062 57.670631,182.280609 54.769272,182.917603 
	C52.858662,183.118896 50.948051,183.320175 48.538628,183.064621 
	C47.696678,178.837479 46.948338,175.048355 47.122585,171.302124 
	C47.302452,167.434967 45.996971,165.396118 42.214981,164.901657 
	C35.919300,162.217117 29.623617,159.532578 23.123360,156.275452 
	C24.955547,151.722015 26.737698,147.581696 29.102224,143.806091 
	C31.369543,140.185699 31.103464,137.394623 27.747585,134.843124 
	C21.897747,127.453560 16.047911,120.063988 10.283937,112.084198 
	C18.140146,105.841110 25.892872,100.163757 33.691021,94.549500 
	C36.196938,92.745377 37.240189,90.944962 36.439877,87.465408 
	C33.663834,75.395874 31.425728,63.202621 28.982960,51.056438 
	C40.740410,50.115452 52.497860,49.174469 65.066925,48.117035 
	C69.026291,48.427540 70.404846,47.235416 71.307228,43.945606 
	C74.264450,33.164520 77.747032,22.527534 81.027672,11.835158 
	C91.036659,16.986513 101.045647,22.137869 111.652634,27.582958 
	C114.539169,30.099337 116.599480,29.722143 119.151291,27.929195 
	C127.364777,22.158232 135.760330,16.646402 144.085678,11.034640 
	C149.776703,19.819460 155.566086,28.543032 161.097916,37.426975 
	C162.725571,40.040932 164.548965,40.889038 167.572159,40.741196 
	C176.385193,40.310200 185.214340,40.208717 194.522278,40.413719 
	C192.483521,49.949203 190.030823,59.069702 187.394745,68.136887 
	C186.546265,71.055351 187.100555,72.999359 190.044754,74.048523 
M158.485748,108.605721 
	C158.770874,108.486877 159.013504,108.309784 159.868530,108.031090 
	C161.249557,107.027649 162.630600,106.024208 164.569870,104.719612 
	C164.476471,104.197563 164.383072,103.675507 164.289673,103.153465 
	C163.783936,103.411644 163.278183,103.669823 162.144989,104.209770 
	C159.086914,105.221863 156.028839,106.233948 152.505066,107.088661 
	C152.505066,107.088661 152.020157,107.169258 151.411301,106.969276 
	C150.986389,106.961617 150.561478,106.953949 149.568665,106.622330 
	C148.711777,106.531555 147.854889,106.440781 146.271286,106.111679 
	C145.508530,106.110703 144.745773,106.109726 143.825882,105.519791 
	C143.549561,105.104454 143.273224,104.689125 142.996887,104.273796 
	C142.697876,104.526520 142.398849,104.779251 141.547745,105.487007 
	C136.850906,108.022522 132.154068,110.558037 127.506401,113.326416 
	C127.506401,113.326416 127.103951,113.442581 126.426231,114.011734 
	C126.320381,114.698257 126.214531,115.384789 126.018990,116.018379 
	C126.018990,116.018379 126.089462,116.095070 125.536865,115.493919 
	C123.341667,120.020142 120.338463,124.351135 119.184036,129.128845 
	C118.082985,133.685593 117.734932,138.837097 124.757225,140.701492 
	C128.411774,141.671768 130.732254,145.499496 130.476700,149.820404 
	C130.219971,154.161026 127.952965,157.313110 124.056213,159.250458 
	C119.569641,161.480988 115.094757,161.463715 110.663414,159.077927 
	C102.833206,154.862183 102.211861,144.809967 109.953903,140.553009 
	C113.557632,138.571518 114.282059,136.344025 114.277130,132.767441 
	C114.260574,120.762688 107.731644,111.212639 96.247856,107.404831 
	C92.679367,106.221588 90.485817,104.350670 89.909637,100.607819 
	C89.789131,99.825012 89.251778,99.106377 88.906517,98.358170 
	C88.564445,98.451500 88.222382,98.544838 87.880310,98.638168 
	C88.198463,100.981743 88.516609,103.325317 88.888184,106.062370 
	C83.067268,106.062370 77.293373,106.062370 71.027107,106.062370 
	C72.405670,107.136559 73.824608,108.242203 75.310822,109.400269 
	C69.250237,114.012596 69.250237,114.012596 58.910030,112.184555 
	C61.577930,113.825058 64.245834,115.465553 66.734329,116.995735 
	C64.602051,126.746910 58.859734,122.750389 53.196457,119.074303 
	C53.095848,119.854309 52.995243,120.634315 52.894634,121.414322 
	C56.198719,123.017395 59.502804,124.620476 62.924679,126.280701 
	C62.924679,129.802444 62.424656,133.685760 63.019402,137.393448 
	C64.733238,148.077667 75.268341,157.431656 85.320496,156.847763 
	C87.467949,156.862045 89.615410,156.876328 92.326843,157.261581 
	C95.768394,156.375732 99.209946,155.489883 102.759018,154.576355 
	C109.851677,166.372421 124.269089,166.201538 132.471634,155.076813 
	C144.697540,159.812759 152.588211,158.988541 161.689163,151.926819 
	C161.888123,151.655899 162.087082,151.384979 162.922775,150.703445 
	C162.396942,150.237076 161.871124,149.770706 161.604813,149.155533 
	C161.867249,148.859650 162.129669,148.563782 162.450424,149.205704 
	C163.492249,148.772369 165.064697,148.626770 165.483002,147.855316 
	C167.191971,144.703720 168.548309,141.360916 170.393570,137.490265 
	C170.531235,136.342758 170.668884,135.195251 170.977539,133.239777 
	C170.915085,132.145462 170.852631,131.051132 170.873459,129.264847 
	C170.591949,128.155579 170.310425,127.046310 170.416306,125.398392 
	C171.276169,125.204582 172.136032,125.010773 173.517136,124.859863 
	C173.893234,124.461365 174.269318,124.062874 174.645416,123.664383 
	C174.116196,123.746849 173.586990,123.829315 173.001984,123.975487 
	C173.001984,123.975487 173.083374,123.952133 172.926987,123.466644 
	C172.629196,123.387825 172.331421,123.309006 171.281570,123.108253 
	C170.132660,121.952988 169.056107,120.710777 167.809265,119.673210 
	C166.986237,118.988319 165.918411,118.597603 164.958038,118.038155 
	C164.958038,118.038155 164.921463,118.032059 165.578888,117.653595 
	C165.917694,114.176659 163.052460,113.961662 160.963806,113.038620 
	C160.963806,113.038620 160.948990,113.119446 161.008026,112.445450 
	C160.040878,111.617546 159.073730,110.789650 157.851532,109.511620 
	C157.792587,109.349556 157.733627,109.187492 157.959366,108.901382 
	C157.959366,108.901382 158.034866,108.600151 158.485748,108.605721 
M151.953293,190.926498 
	C152.103455,191.078415 152.253632,191.230347 152.731583,191.862442 
	C153.345734,191.955185 154.353577,192.326523 154.514755,192.098740 
	C156.806061,188.860825 154.946869,184.060822 150.399658,182.372040 
	C151.280212,184.199173 151.994583,185.681473 152.711639,187.169357 
	C133.344208,195.897705 98.075867,195.435760 83.674110,186.426758 
	C84.120667,185.110977 84.562309,183.809647 85.256348,181.764648 
	C81.104637,183.800613 79.814064,186.517670 80.403160,190.110046 
	C80.561035,191.072754 81.420456,191.920425 82.433197,193.617523 
	C82.821510,191.583054 83.022194,190.531631 83.218658,189.502304 
	C105.931320,198.072922 128.690170,197.715317 151.953293,190.926498 
z"/>
<path fill="#FAE573" opacity="1.000000" stroke="none" 
	d="
M28.541748,51.007107 
	C31.425728,63.202621 33.663834,75.395874 36.439877,87.465408 
	C37.240189,90.944962 36.196938,92.745377 33.691021,94.549500 
	C25.892872,100.163757 18.140146,105.841110 10.174660,111.766953 
	C8.994105,110.974892 8.008695,109.909874 6.776177,108.577789 
	C13.864424,103.146843 20.644430,97.886978 27.501755,92.729927 
	C30.263296,90.653107 31.383480,88.453789 30.510620,84.747475 
	C27.933582,73.804916 25.814224,62.754570 23.431688,51.343594 
	C25.224340,51.195454 26.662437,51.076614 28.541748,51.007107 
z"/>
<path fill="#CCA62E" opacity="1.000000" stroke="none" 
	d="
M203.264893,150.756561 
	C199.990265,142.178894 197.230942,133.499969 194.055328,124.976143 
	C192.797272,121.599327 193.242279,119.051788 195.366394,116.311287 
	C200.624100,109.527824 205.721558,102.620171 210.913239,95.419815 
	C212.003845,96.054161 213.064621,97.031113 214.356842,98.221214 
	C209.687027,104.274673 205.450211,110.215240 200.716873,115.729614 
	C198.000656,118.894005 197.443497,121.635696 199.061035,125.520401 
	C202.235291,133.143677 204.913513,140.973480 207.918228,149.043427 
	C206.296478,149.674088 204.954941,150.195770 203.264893,150.756561 
z"/>
<path fill="#CCA62E" opacity="1.000000" stroke="none" 
	d="
M139.449768,222.050949 
	C138.803650,217.786804 138.071594,213.450211 138.481506,209.224350 
	C138.680130,207.176498 140.662552,204.868698 142.460846,203.494354 
	C146.936691,200.073730 151.677582,196.969772 156.487656,194.025574 
	C160.807648,191.381332 162.291946,187.842209 162.166443,182.806519 
	C162.061295,178.586838 163.130646,174.312225 163.941315,170.112366 
	C164.159546,168.981705 165.330261,168.034897 166.461090,167.323471 
	C166.615082,169.433517 166.371735,171.223785 166.128387,173.014038 
	C168.307922,186.798935 162.567764,196.072174 150.086990,201.770035 
	C144.259048,204.430649 141.379791,208.850510 142.982101,215.645859 
	C143.599976,218.266235 143.187439,221.041245 139.449768,222.050949 
z"/>
<path fill="#FAE472" opacity="1.000000" stroke="none" 
	d="
M80.826813,11.575305 
	C77.747032,22.527534 74.264450,33.164520 71.307228,43.945606 
	C70.404846,47.235416 69.026291,48.427540 65.468735,47.994011 
	C68.645760,35.093925 72.232605,22.200417 75.921783,8.939057 
	C77.764610,9.869995 79.195282,10.592724 80.826813,11.575305 
z"/>
<path fill="#38393F" opacity="1.000000" stroke="none" 
	d="
M55.227104,182.939301 
	C57.670631,182.280609 60.645912,181.860062 63.439026,180.906128 
	C64.652481,180.491684 65.984909,179.115570 66.313545,177.916031 
	C66.507950,177.206436 65.000755,175.337250 63.996265,175.099777 
	C53.901051,172.713303 52.017841,161.391510 53.811508,154.674759 
	C54.403278,152.458755 57.090843,149.682816 59.206459,149.300461 
	C61.432438,148.898132 64.120888,151.054581 66.607254,152.092957 
	C66.399635,152.639954 66.192017,153.186935 65.984398,153.733932 
	C65.442429,153.680603 64.848228,153.753738 64.366432,153.554733 
	C58.399841,151.090149 55.651165,152.766983 55.103107,159.245865 
	C54.556740,165.704681 58.895523,171.323090 66.785507,173.053329 
	C65.042351,168.748352 63.559692,165.086731 61.662777,160.402023 
	C66.134048,162.881607 67.556793,166.436752 67.977203,170.144485 
	C68.610847,175.732910 68.590363,181.395477 68.830109,187.488876 
	C67.557732,183.005478 64.981537,180.643967 59.649006,182.910172 
	C58.523697,183.388412 57.016281,182.967560 55.227104,182.939301 
z"/>
<path fill="#FBE572" opacity="1.000000" stroke="none" 
	d="
M144.008942,10.697192 
	C135.760330,16.646402 127.364777,22.158232 119.151291,27.929195 
	C116.599480,29.722143 114.539169,30.099337 112.018356,27.639488 
	C121.543861,20.643715 131.301666,13.885147 141.463150,6.846969 
	C142.344086,8.100280 143.138153,9.230012 144.008942,10.697192 
z"/>
<path fill="#CCA62E" opacity="1.000000" stroke="none" 
	d="
M190.301727,73.781952 
	C187.100555,72.999359 186.546265,71.055351 187.394745,68.136887 
	C190.030823,59.069702 192.483521,49.949203 194.987213,40.455490 
	C196.431061,40.061588 197.895065,40.061588 200.117249,40.061588 
	C196.867401,51.435696 193.713058,62.475544 190.301727,73.781952 
z"/>
<path fill="#C8A32F" opacity="1.000000" stroke="none" 
	d="
M175.492508,172.840240 
	C178.098373,172.840240 180.704224,172.840240 184.190277,172.840240 
	C183.896240,169.149826 183.335739,165.785690 183.468155,162.449066 
	C183.552353,160.327682 184.665588,158.247116 185.701294,156.112000 
	C186.662506,161.332230 187.003952,166.629272 187.898560,171.831177 
	C188.512238,175.399582 187.241760,177.646576 183.944946,177.598434 
	C178.679733,177.521576 173.426498,176.624847 168.512817,175.630096 
	C171.069138,174.403717 173.280823,173.621979 175.492508,172.840240 
z"/>
<path fill="#403F3D" opacity="1.000000" stroke="none" 
	d="
M175.721527,172.566864 
	C173.280823,173.621979 171.069138,174.403717 168.490814,175.247406 
	C168.101105,174.760376 168.078049,174.211395 168.084015,173.251038 
	C176.092560,171.812592 181.308701,163.632446 178.298599,156.436829 
	C176.368378,151.822632 172.803085,151.322037 168.309738,153.717957 
	C169.442139,150.546188 171.883392,148.415436 174.635422,149.181717 
	C177.024384,149.846909 180.202026,152.325058 180.638184,154.485168 
	C181.935547,160.910309 181.416138,167.396942 175.721527,172.566864 
z"/>
<path fill="#FCE673" opacity="1.000000" stroke="none" 
	d="
M27.503586,135.086227 
	C31.103464,137.394623 31.369543,140.185699 29.102224,143.806091 
	C26.737698,147.581696 24.955547,151.722015 22.828335,156.092178 
	C21.211046,155.890717 19.684204,155.299973 17.738930,154.547318 
	C20.993061,147.978668 24.126322,141.653992 27.503586,135.086227 
z"/>
<path fill="#F7E170" opacity="1.000000" stroke="none" 
	d="
M42.195625,165.362671 
	C45.996971,165.396118 47.302452,167.434967 47.122585,171.302124 
	C46.948338,175.048355 47.696678,178.837479 48.124882,183.083130 
	C46.600315,183.853470 44.990685,184.148468 43.057976,184.502655 
	C42.753246,178.046967 42.464760,171.935333 42.195625,165.362671 
z"/>
<path fill="#48453D" opacity="1.000000" stroke="none" 
	d="
M166.468658,172.997864 
	C166.371735,171.223785 166.615082,169.433517 166.814880,167.252747 
	C166.771347,166.862213 166.938522,166.502762 167.230621,166.199661 
	C167.589081,165.559525 167.655441,165.222488 167.721802,164.885452 
	C169.024857,163.511719 170.327911,162.137985 171.630981,160.764252 
	C171.851089,161.001465 172.071213,161.238693 172.291336,161.475906 
	C170.952347,165.045837 169.613373,168.615753 168.221985,172.539246 
	C167.716034,172.922440 167.262482,172.952072 166.468658,172.997864 
z"/>
<path fill="#38393F" opacity="1.000000" stroke="none" 
	d="
M69.000305,189.377228 
	C69.426178,189.866959 69.859985,190.669754 70.394218,191.727386 
	C69.999176,191.218262 69.503708,190.454269 69.000305,189.377228 
z"/>
<path fill="#CCA62E" opacity="1.000000" stroke="none" 
	d="
M138.212540,222.853714 
	C138.067978,222.545044 138.276794,222.294739 138.826202,222.091309 
	C138.872772,222.317963 138.672485,222.575912 138.212540,222.853714 
z"/>
<path fill="#F9FBFC" opacity="1.000000" stroke="none" 
	d="
M91.762863,156.890594 
	C89.615410,156.876328 87.467949,156.862045 84.833237,156.523438 
	C82.906822,155.553802 81.493790,154.840759 80.024368,154.273849 
	C68.480957,149.820496 62.224144,137.775650 65.350235,125.971024 
	C68.334122,114.703400 80.102676,106.716133 91.126007,108.477142 
	C104.206573,110.566803 112.798454,120.741180 111.919365,133.461105 
	C111.808586,135.064056 110.567993,137.092819 109.225998,138.011887 
	C105.269531,140.721436 102.921440,144.160065 101.979080,148.878525 
	C101.659760,150.477386 100.297539,152.201096 98.922241,153.179337 
	C96.753227,154.722122 94.170479,155.683243 91.762863,156.890594 
M89.014549,134.620361 
	C88.369217,132.980286 88.007217,131.098541 86.925697,129.830475 
	C86.544342,129.383347 83.891495,130.039886 83.209389,130.917862 
	C82.529526,131.792923 82.732834,134.697891 83.045219,134.778015 
	C84.828323,135.235397 86.759636,135.115005 89.014549,134.620361 
z"/>
<path fill="#F9FBFC" opacity="1.000000" stroke="none" 
	d="
M162.392105,148.267899 
	C162.129669,148.563782 161.867249,148.859650 161.185669,149.509201 
	C160.412155,150.244659 160.057785,150.626465 159.555298,151.069794 
	C159.407196,151.131348 159.206863,151.381882 158.894379,151.498184 
	C156.046326,152.805618 153.510742,153.996750 150.654404,155.164520 
	C149.748901,155.384659 149.164154,155.628174 148.172150,155.821777 
	C144.639359,155.473557 141.465225,155.419769 138.401352,154.811096 
	C135.048218,154.144974 132.928253,152.793381 132.519165,148.361481 
	C132.219528,145.115234 129.299561,141.469070 126.549049,139.224762 
	C120.867027,134.588470 120.015213,133.801895 121.978561,126.677910 
	C122.978867,123.048325 124.696228,119.616364 126.089462,116.095070 
	C126.089462,116.095070 126.018990,116.018379 126.478592,116.259552 
	C129.116058,114.194305 129.116058,114.194305 127.103951,113.442581 
	C127.103951,113.442581 127.506401,113.326416 127.717522,113.681366 
	C128.686066,113.864334 129.619659,113.917870 130.173431,113.485237 
	C135.274033,109.500496 141.165436,108.167244 147.777252,108.323196 
	C149.051743,108.660706 150.017990,108.788902 151.316437,109.063568 
	C154.748749,110.513184 157.848862,111.816315 160.948990,113.119446 
	C160.948990,113.119446 160.963806,113.038620 160.662476,113.332977 
	C161.881256,115.095581 163.401352,116.563820 164.921463,118.032059 
	C164.921463,118.032059 164.958038,118.038155 164.890442,118.413277 
	C165.938690,121.199631 167.054550,123.610870 168.156097,126.354385 
	C168.387314,127.298203 168.632797,127.909752 168.824585,128.908997 
	C168.804077,131.390518 168.837280,133.484344 168.678741,135.834351 
	C168.396164,136.713776 168.305313,137.337021 168.062500,138.295166 
	C166.071060,141.842697 164.231583,145.055298 162.392105,148.267899 
M150.141373,135.270218 
	C149.990143,133.552185 150.258041,131.600464 149.491455,130.225525 
	C149.162308,129.635178 146.361298,129.753571 145.286957,130.463455 
	C144.452209,131.015030 144.017197,133.986847 144.328705,134.153275 
	C145.939087,135.013718 147.846939,135.317490 150.141373,135.270218 
z"/>
<path fill="#3B3B3E" opacity="1.000000" stroke="none" 
	d="
M125.813164,115.794495 
	C124.696228,119.616364 122.978867,123.048325 121.978561,126.677910 
	C120.015213,133.801895 120.867027,134.588470 126.549049,139.224762 
	C129.299561,141.469070 132.219528,145.115234 132.519165,148.361481 
	C132.928253,152.793381 135.048218,154.144974 138.401352,154.811096 
	C141.465225,155.419769 144.639359,155.473557 148.502563,155.848022 
	C149.818527,155.678741 150.396851,155.433304 150.975174,155.187866 
	C153.510742,153.996750 156.046326,152.805618 159.376526,151.726471 
	C160.514175,151.917633 160.857178,151.996811 161.200195,152.075989 
	C152.588211,158.988541 144.697540,159.812759 132.471634,155.076813 
	C124.269089,166.201538 109.851677,166.372421 102.759018,154.576355 
	C99.209946,155.489883 95.768394,156.375732 92.044853,157.076080 
	C94.170479,155.683243 96.753227,154.722122 98.922241,153.179337 
	C100.297539,152.201096 101.659760,150.477386 101.979080,148.878525 
	C102.921440,144.160065 105.269531,140.721436 109.225998,138.011887 
	C110.567993,137.092819 111.808586,135.064056 111.919365,133.461105 
	C112.798454,120.741180 104.206573,110.566803 91.126007,108.477142 
	C80.102676,106.716133 68.334122,114.703400 65.350235,125.971024 
	C62.224144,137.775650 68.480957,149.820496 80.024368,154.273849 
	C81.493790,154.840759 82.906822,155.553802 84.367798,156.521500 
	C75.268341,157.431656 64.733238,148.077667 63.019402,137.393448 
	C62.424656,133.685760 62.924679,129.802444 62.924679,126.280701 
	C59.502804,124.620476 56.198719,123.017395 52.894634,121.414322 
	C52.995243,120.634315 53.095848,119.854309 53.196457,119.074303 
	C58.859734,122.750389 64.602051,126.746910 66.734329,116.995735 
	C64.245834,115.465553 61.577930,113.825058 58.910030,112.184555 
	C69.250237,114.012596 69.250237,114.012596 75.310822,109.400269 
	C73.824608,108.242203 72.405670,107.136559 71.027107,106.062370 
	C77.293373,106.062370 83.067268,106.062370 88.888184,106.062370 
	C88.516609,103.325317 88.198463,100.981743 87.880310,98.638168 
	C88.222382,98.544838 88.564445,98.451500 88.906517,98.358170 
	C89.251778,99.106377 89.789131,99.825012 89.909637,100.607819 
	C90.485817,104.350670 92.679367,106.221588 96.247856,107.404831 
	C107.731644,111.212639 114.260574,120.762688 114.277130,132.767441 
	C114.282059,136.344025 113.557632,138.571518 109.953903,140.553009 
	C102.211861,144.809967 102.833206,154.862183 110.663414,159.077927 
	C115.094757,161.463715 119.569641,161.480988 124.056213,159.250458 
	C127.952965,157.313110 130.219971,154.161026 130.476700,149.820404 
	C130.732254,145.499496 128.411774,141.671768 124.757225,140.701492 
	C117.734932,138.837097 118.082985,133.685593 119.184036,129.128845 
	C120.338463,124.351135 123.341667,120.020142 125.813164,115.794495 
z"/>
<path fill="#41403D" opacity="1.000000" stroke="none" 
	d="
M151.544098,190.433289 
	C128.690170,197.715317 105.931320,198.072922 83.218658,189.502304 
	C83.022194,190.531631 82.821510,191.583054 82.433197,193.617523 
	C81.420456,191.920425 80.561035,191.072754 80.403160,190.110046 
	C79.814064,186.517670 81.104637,183.800613 85.256348,181.764648 
	C84.562309,183.809647 84.120667,185.110977 83.674110,186.426758 
	C98.075867,195.435760 133.344208,195.897705 152.711639,187.169357 
	C151.994583,185.681473 151.280212,184.199173 150.399658,182.372040 
	C154.946869,184.060822 156.806061,188.860825 154.514755,192.098740 
	C154.353577,192.326523 153.345734,191.955185 152.732971,191.429230 
	C152.337601,190.808441 151.940842,190.620865 151.544098,190.433289 
z"/>
<path fill="#3B3B3E" opacity="1.000000" stroke="none" 
	d="
M147.469009,108.113892 
	C141.165436,108.167244 135.274033,109.500496 130.173431,113.485237 
	C129.619659,113.917870 128.686066,113.864334 127.692940,113.564926 
	C132.154068,110.558037 136.850906,108.022522 142.051682,105.420113 
	C143.036880,105.901428 143.518143,106.449646 144.374237,106.998428 
	C145.498581,106.998627 146.248077,106.998245 147.389847,107.001831 
	C148.566940,106.985962 149.351761,106.966118 150.136566,106.946274 
	C150.561478,106.953949 150.986389,106.961617 151.798920,107.210907 
	C152.186523,107.452530 152.619415,107.562431 152.619415,107.562431 
	C152.619415,107.562431 152.970764,107.246048 152.970764,107.246048 
	C156.028839,106.233948 159.086914,105.221863 162.719879,104.184021 
	C163.533707,104.445770 163.772675,104.733269 164.011627,105.020767 
	C162.630600,106.024208 161.249557,107.027649 159.319000,108.078232 
	C158.475433,108.207634 158.230576,108.365891 158.034866,108.600151 
	C158.034866,108.600151 157.959366,108.901382 157.710342,109.104340 
	C157.676407,109.525452 157.891495,109.743599 158.106583,109.961754 
	C159.073730,110.789650 160.040878,111.617546 160.978516,112.782448 
	C157.848862,111.816315 154.748749,110.513184 151.051437,108.799301 
	C149.459167,108.297012 148.464096,108.205452 147.469009,108.113892 
z"/>
<path fill="#3B3B3E" opacity="1.000000" stroke="none" 
	d="
M168.870483,135.578156 
	C168.837280,133.484344 168.804077,131.390518 168.845657,128.563049 
	C168.670425,127.226952 168.420410,126.624535 168.170395,126.022110 
	C167.054550,123.610870 165.938690,121.199631 164.891510,118.431793 
	C165.918411,118.597603 166.986237,118.988319 167.809265,119.673210 
	C169.056107,120.710777 170.132660,121.952988 171.787170,123.347870 
	C172.515259,123.797958 172.778793,123.919510 173.083374,123.952133 
	C173.083374,123.952133 173.001984,123.975487 173.009766,124.169617 
	C173.017532,124.363754 172.995895,124.816963 172.995895,124.816963 
	C172.136032,125.010773 171.276169,125.204582 170.210236,126.025444 
	C170.266190,127.753937 170.528183,128.855377 170.790192,129.956818 
	C170.852631,131.051132 170.915085,132.145462 170.655670,133.904434 
	C170.234039,135.742233 170.134262,136.915375 170.034500,138.088516 
	C168.548309,141.360916 167.191971,144.703720 165.483002,147.855316 
	C165.064697,148.626770 163.492249,148.772369 162.421265,148.736801 
	C164.231583,145.055298 166.071060,141.842697 168.283783,138.058716 
	C168.728180,136.850952 168.799332,136.214554 168.870483,135.578156 
z"/>
<path fill="#3B3B3E" opacity="1.000000" stroke="none" 
	d="
M165.250183,117.842827 
	C163.401352,116.563820 161.881256,115.095581 160.621399,113.333519 
	C163.052460,113.961662 165.917694,114.176659 165.250183,117.842827 
z"/>
<path fill="#3E3D3F" opacity="1.000000" stroke="none" 
	d="
M170.831818,129.610840 
	C170.528183,128.855377 170.266190,127.753937 170.016541,126.294769 
	C170.310425,127.046310 170.591949,128.155579 170.831818,129.610840 
z"/>
<path fill="#3E3D3F" opacity="1.000000" stroke="none" 
	d="
M173.256516,124.838409 
	C172.995895,124.816963 173.017532,124.363754 173.037659,124.137772 
	C173.586990,123.829315 174.116196,123.746849 174.645416,123.664383 
	C174.269318,124.062874 173.893234,124.461365 173.256516,124.838409 
z"/>
<path fill="#3B3B3E" opacity="1.000000" stroke="none" 
	d="
M126.765091,113.727158 
	C129.116058,114.194305 129.116058,114.194305 126.523438,116.286018 
	C126.214531,115.384789 126.320381,114.698257 126.765091,113.727158 
z"/>
<path fill="#3E3D3F" opacity="1.000000" stroke="none" 
	d="
M170.214035,137.789398 
	C170.134262,136.915375 170.234039,135.742233 170.570175,134.308411 
	C170.668884,135.195251 170.531235,136.342758 170.214035,137.789398 
z"/>
<path fill="#413F3E" opacity="1.000000" stroke="none" 
	d="
M143.999390,106.997864 
	C143.518143,106.449646 143.036880,105.901428 142.327728,105.192596 
	C142.398849,104.779251 142.697876,104.526520 142.996887,104.273796 
	C143.273224,104.689125 143.549561,105.104454 143.911758,106.036224 
	C143.997635,106.552650 143.999390,106.997864 143.999390,106.997864 
z"/>
<path fill="#3B3B3E" opacity="1.000000" stroke="none" 
	d="
M159.703400,151.008255 
	C160.057785,150.626465 160.412155,150.244659 161.055908,149.583603 
	C161.871124,149.770706 162.396942,150.237076 162.174652,150.877182 
	C160.852158,151.036697 160.277771,151.022476 159.703400,151.008255 
z"/>
<path fill="#413F3E" opacity="1.000000" stroke="none" 
	d="
M149.852615,106.784302 
	C149.351761,106.966118 148.566940,106.985962 147.389252,106.839890 
	C146.996384,106.673981 146.998001,106.349998 146.998001,106.349998 
	C147.854889,106.440781 148.711777,106.531555 149.852615,106.784302 
z"/>
<path fill="#3E3D3F" opacity="1.000000" stroke="none" 
	d="
M146.634644,106.230835 
	C146.998001,106.349998 146.996384,106.673981 146.996979,106.835922 
	C146.248077,106.998245 145.498581,106.998627 144.374237,106.998428 
	C143.999390,106.997864 143.997635,106.552650 143.990326,106.330704 
	C144.745773,106.109726 145.508530,106.110703 146.634644,106.230835 
z"/>
<path fill="#413F3E" opacity="1.000000" stroke="none" 
	d="
M164.290741,104.870193 
	C163.772675,104.733269 163.533707,104.445770 163.033600,104.043137 
	C163.278183,103.669823 163.783936,103.411644 164.289673,103.153458 
	C164.383072,103.675507 164.476471,104.197563 164.290741,104.870193 
z"/>
<path fill="#3E3D3F" opacity="1.000000" stroke="none" 
	d="
M159.555298,151.069794 
	C160.277771,151.022476 160.852158,151.036697 161.856293,151.082489 
	C162.087082,151.384979 161.888123,151.655899 161.444672,152.001404 
	C160.857178,151.996811 160.514175,151.917633 159.689011,151.610168 
	C159.206863,151.381882 159.407196,151.131348 159.555298,151.069794 
z"/>
<path fill="#CCA62E" opacity="1.000000" stroke="none" 
	d="
M167.517609,165.032745 
	C167.655441,165.222488 167.589081,165.559525 167.278152,166.007233 
	C167.126862,165.805283 167.220139,165.492676 167.517609,165.032745 
z"/>
<path fill="#3E3D3F" opacity="1.000000" stroke="none" 
	d="
M173.005188,123.709389 
	C172.778793,123.919510 172.515259,123.797958 172.163193,123.408829 
	C172.331421,123.309006 172.629196,123.387825 173.005188,123.709389 
z"/>
<path fill="#413F3E" opacity="1.000000" stroke="none" 
	d="
M157.979065,109.736687 
	C157.891495,109.743599 157.676407,109.525452 157.567993,109.166367 
	C157.733627,109.187492 157.792587,109.349556 157.979065,109.736687 
z"/>
<path fill="#413F3E" opacity="1.000000" stroke="none" 
	d="
M158.260315,108.602936 
	C158.230576,108.365891 158.475433,108.207634 158.991547,108.099899 
	C159.013504,108.309784 158.770874,108.486877 158.260315,108.602936 
z"/>
<path fill="#413F3E" opacity="1.000000" stroke="none" 
	d="
M152.737915,107.167358 
	C152.970764,107.246048 152.619415,107.562431 152.619415,107.562431 
	C152.619415,107.562431 152.186523,107.452530 152.103333,107.310898 
	C152.020157,107.169258 152.505066,107.088661 152.737915,107.167358 
z"/>
<path fill="#3B3B3F" opacity="1.000000" stroke="none" 
	d="
M88.827568,134.905640 
	C86.759636,135.115005 84.828323,135.235397 83.045219,134.778015 
	C82.732834,134.697891 82.529526,131.792923 83.209389,130.917862 
	C83.891495,130.039886 86.544342,129.383347 86.925697,129.830475 
	C88.007217,131.098541 88.369217,132.980286 88.827568,134.905640 
z"/>
<path fill="#3E3E42" opacity="1.000000" stroke="none" 
	d="
M149.896210,135.542801 
	C147.846939,135.317490 145.939087,135.013718 144.328705,134.153275 
	C144.017197,133.986847 144.452209,131.015030 145.286957,130.463455 
	C146.361298,129.753571 149.162308,129.635178 149.491455,130.225525 
	C150.258041,131.600464 149.990143,133.552185 149.896210,135.542801 
z"/>
<path fill="#3E3D3F" opacity="1.000000" stroke="none" 
	d="
M147.777252,108.323196 
	C148.464096,108.205452 149.459167,108.297012 150.719238,108.652832 
	C150.017990,108.788902 149.051743,108.660706 147.777252,108.323196 
z"/>
<path fill="#3E3D3F" opacity="1.000000" stroke="none" 
	d="
M168.156097,126.354385 
	C168.420410,126.624535 168.670425,127.226952 168.899353,128.175339 
	C168.632797,127.909752 168.387314,127.298203 168.156097,126.354385 
z"/>
<path fill="#3E3D3F" opacity="1.000000" stroke="none" 
	d="
M150.654404,155.164505 
	C150.396851,155.433304 149.818527,155.678741 148.909821,155.897934 
	C149.164154,155.628174 149.748901,155.384659 150.654404,155.164505 
z"/>
<path fill="#3E3D3F" opacity="1.000000" stroke="none" 
	d="
M168.678741,135.834351 
	C168.799332,136.214554 168.728180,136.850952 168.435760,137.723801 
	C168.305313,137.337021 168.396164,136.713776 168.678741,135.834351 
z"/>
<path fill="#FDD302" opacity="1.000000" stroke="none" 
	d="
M151.748688,190.679901 
	C151.940842,190.620865 152.337601,190.808441 152.569092,191.189148 
	C152.253632,191.230347 152.103455,191.078415 151.748688,190.679901 
z"/>
</svg>